<svg width="1376" height="150" viewBox="0 0 1376 150" fill="none" xmlns="http://www.w3.org/2000/svg">
<path d="M114.873 146.725C113.204 148.803 110.656 150.018 107.964 150L46.841 149.912C44.1673 149.912 41.6188 148.697 39.9501 146.62L1.92302 99.2818C0.254072 97.2044 -0.374027 94.4759 0.218181 91.8881L13.9287 32.9487C14.5209 30.3609 16.2796 28.1779 18.7023 27.0337L73.8314 0.856022C76.2361 -0.288258 79.0536 -0.288259 81.4765 0.873629L136.516 27.1921C138.921 28.354 140.679 30.5369 141.272 33.1248L154.785 92.117C155.377 94.7048 154.731 97.4158 153.062 99.4931L114.873 146.725Z" fill="url(#paint0_linear_101_41)"/>
<path d="M86.8507 91.957C88.3582 91.9745 89.9375 92.0449 90.368 92.1152C90.799 92.1859 91.8221 92.3969 92.6115 92.6079C93.4192 92.8192 94.5857 93.2062 95.2317 93.4525C95.8599 93.6988 96.7575 94.1037 97.2241 94.35C97.6907 94.5963 98.4084 95.0011 98.8033 95.2296C99.2161 95.4585 99.952 95.9511 100.455 96.3206C100.957 96.6901 101.944 97.5522 102.68 98.2562C103.398 98.9424 104.277 99.8927 104.636 100.35C104.977 100.808 105.552 101.599 105.893 102.092C106.215 102.585 106.718 103.412 106.987 103.94C107.275 104.468 107.705 105.435 107.975 106.104C108.226 106.755 108.549 107.67 108.692 108.145C108.818 108.602 108.944 109.113 108.979 109.271C109.015 109.447 109.123 109.975 109.231 110.468C109.338 110.96 109.446 111.91 109.5 112.579C109.536 113.23 109.644 113.846 109.715 113.916C109.805 114.022 110.182 114.075 110.864 114.075C111.42 114.075 112.12 114.11 112.443 114.18C112.748 114.233 113.394 114.356 113.861 114.426C114.328 114.514 115.064 114.69 115.512 114.814C115.943 114.937 116.589 115.166 116.966 115.289C117.325 115.412 118.061 115.729 118.599 115.992C119.138 116.239 120.089 116.784 120.735 117.189C121.489 117.682 122.368 118.403 123.283 119.336C124.073 120.11 124.952 121.113 125.294 121.623C125.617 122.116 126.065 122.872 126.281 123.295C126.496 123.717 126.676 124.174 126.676 124.315C126.676 124.438 126.406 124.878 126.083 125.265C125.76 125.67 124.755 126.937 123.822 128.081C122.889 129.242 121.991 130.368 121.794 130.597C121.596 130.843 120.896 131.723 120.214 132.585C119.533 133.447 118.94 134.168 118.904 134.204C118.868 134.239 118.545 134.644 118.169 135.101C117.791 135.559 117.199 136.315 116.84 136.773C116.482 137.23 116.158 137.635 116.123 137.67C116.087 137.705 115.728 138.145 115.333 138.638C114.92 139.131 114.525 139.623 114.417 139.729C114.31 139.852 114.041 140.186 113.807 140.503C113.574 140.802 112.784 141.787 112.066 142.685C111.331 143.582 110.577 144.497 110.361 144.708C110.146 144.937 109.715 145.184 109.41 145.289C108.908 145.43 107.705 145.465 101.262 145.447C97.1163 145.43 82.7586 145.394 69.3697 145.377C55.9812 145.359 44.8359 145.307 44.6026 145.271C44.3692 145.218 43.9565 145.06 43.6875 144.919C43.4182 144.761 43.0593 144.479 42.8799 144.303C42.7001 144.11 42.3056 143.67 42.0184 143.301C41.7312 142.931 41.1387 142.175 40.7081 141.611C40.2775 141.066 39.9005 140.591 39.8644 140.556C39.8109 140.52 39.344 139.922 38.7878 139.236C38.2495 138.532 37.4775 137.565 37.0826 137.072C36.6699 136.579 36.006 135.752 35.5931 135.224C35.1624 134.696 34.7317 134.168 34.6419 134.063C34.5343 133.957 34.283 133.623 34.0676 133.342C33.8523 133.06 33.2421 132.286 32.7216 131.617C32.2011 130.966 30.9986 129.471 30.0475 128.292C29.0962 127.13 28.3245 126.11 28.3245 126.057C28.3245 125.987 28.486 125.705 28.6835 125.423C28.8809 125.142 29.4013 124.561 29.868 124.122C30.3166 123.699 30.9089 123.189 31.1781 122.978C31.4473 122.784 32.0216 122.397 32.4524 122.133C32.8831 121.869 33.4933 121.535 33.7805 121.412C34.0856 121.271 34.5522 121.077 34.8214 120.972C35.0907 120.849 35.7007 120.655 36.1855 120.532C36.6699 120.409 37.1904 120.303 37.3341 120.303C37.4957 120.303 37.6752 120.233 37.7469 120.162C37.8364 120.057 37.9085 119.283 37.9441 118.209C37.998 117.083 38.1057 115.905 38.2852 115.095C38.4289 114.356 38.7161 113.283 38.9134 112.685C39.1107 112.104 39.4699 111.207 39.7032 110.714C39.9365 110.221 40.3671 109.412 40.6721 108.919C40.9953 108.426 41.5336 107.634 41.8746 107.177C42.2157 106.719 43.0772 105.805 43.7592 105.136C44.4591 104.468 45.4823 103.605 46.0562 103.218C46.6127 102.831 47.6897 102.215 48.4253 101.828C49.1612 101.458 50.0766 101.054 50.4893 100.913C50.8842 100.772 51.602 100.561 52.0686 100.438C52.5352 100.297 53.2711 100.121 53.7021 100.033C54.2404 99.9277 55.3891 99.8748 57.2915 99.8748C59.1401 99.8748 60.3066 99.9277 60.7372 100.016C61.1142 100.104 61.6347 100.244 61.9037 100.315C62.173 100.385 62.909 100.614 63.5372 100.808C64.1654 101.019 65.2063 101.441 65.8524 101.758C66.4806 102.074 67.0545 102.338 67.1266 102.338C67.1805 102.338 67.4494 102.021 67.7188 101.634C67.9699 101.265 68.5086 100.561 68.8853 100.104C69.2624 99.6463 70.07 98.8017 70.6622 98.2562C71.2543 97.6932 72.2054 96.8836 72.7619 96.4438C73.3362 96.0214 74.1439 95.441 74.5926 95.1946C75.0232 94.9305 75.9564 94.4378 76.6563 94.0862C77.3566 93.7517 78.5049 93.2943 79.2048 93.0655C79.9051 92.8367 80.9639 92.5375 81.5739 92.3969C82.1664 92.2737 82.9919 92.0977 83.3868 92.0449C83.7817 91.9745 85.3431 91.9396 86.8507 91.957Z" fill="white"/>
<path d="M53.0956 47.9381H58.8761L51.0851 38.238L58.6068 28.9079H53.0418L46.5796 37.2523V28.9079H41.8582V47.9381H46.5796V39.5406L53.0956 47.9381ZM76.3428 32.7984H71.6214V41.0196C71.6214 43.0791 70.4546 44.2236 68.6235 44.2236C66.8644 44.2236 65.6797 43.0791 65.6797 41.0196V32.7984H60.9762V41.6358C60.9762 45.6848 63.3816 48.0963 66.9539 48.0963C69.0184 48.0963 70.67 47.1634 71.6214 45.8783V47.9381H76.3428V32.7984ZM84.4745 34.9285V27.8517H79.7535V47.9203H84.4745V45.8079C85.3363 47.1281 86.9698 48.1316 89.2315 48.1316C93.0193 48.1316 96.0351 45.1036 96.0351 40.3331C96.0351 35.5623 93.0375 32.5696 89.2315 32.5696C87.0237 32.5696 85.3363 33.573 84.4745 34.9285ZM91.2242 40.3331C91.2242 42.7446 89.6086 44.1001 87.8135 44.1001C86.0541 44.1001 84.4388 42.7625 84.4388 40.3506C84.4388 37.9388 86.0541 36.6187 87.8135 36.6187C89.6086 36.6187 91.2242 37.9213 91.2242 40.3331ZM105.316 36.2841C106.896 36.2841 108.224 37.2348 108.224 38.8895H102.3C102.588 37.217 103.772 36.2841 105.316 36.2841ZM112.694 42.9031H107.668C107.272 43.7131 106.537 44.3643 105.208 44.3643C103.682 44.3643 102.444 43.449 102.282 41.4598H112.981C113.035 41.0018 113.053 40.5441 113.053 40.104C113.053 35.5095 109.876 32.5696 105.37 32.5696C100.792 32.5696 97.579 35.5623 97.579 40.3506C97.579 45.1564 100.846 48.1316 105.37 48.1316C109.211 48.1316 111.958 45.8608 112.694 42.9031ZM33.5288 72.5662C33.457 66.9329 25.1097 68.6404 25.1097 66.2286C25.1097 65.5067 25.72 65.0669 26.815 65.0669C28.1434 65.0669 28.9513 65.7355 29.0949 66.7744H33.457C33.1518 63.7817 30.9439 61.6162 26.9587 61.6162C22.9196 61.6162 20.6757 63.7289 20.6757 66.3167C20.6757 71.8619 29.0949 70.1015 29.0949 72.5484C29.0949 73.2174 28.4486 73.7632 27.2279 73.7632C25.9354 73.7632 24.9661 73.0589 24.8584 72.0029H20.191C20.4065 74.9252 23.171 77.1785 27.2818 77.1785C31.1593 77.1785 33.5288 75.2069 33.5288 72.5662ZM36.437 76.9672H41.1579V61.8451H36.437V76.9672ZM38.8246 60.2607C40.4759 60.2607 41.6071 59.1519 41.6071 57.7611C41.6071 56.3527 40.4759 55.2436 38.8246 55.2436C37.1369 55.2436 36.006 56.3527 36.006 57.7611C36.006 59.1519 37.1369 60.2607 38.8246 60.2607ZM65.8591 76.9672H70.5623V68.1299C70.5623 64.0634 68.0852 61.6691 64.2795 61.6691C62.0353 61.6691 60.0968 62.8839 59.0734 64.4857C58.0324 62.6726 56.1475 61.6691 53.8316 61.6691C51.8032 61.6691 50.2414 62.5141 49.326 63.7289V61.8276H44.5869V76.9672H49.326V68.746C49.326 66.7744 50.4747 65.6831 52.288 65.6831C54.0831 65.6831 55.2317 66.7744 55.2317 68.746V76.9672H59.9352V68.746C59.9352 66.7744 61.1021 65.6831 62.8972 65.6831C64.6923 65.6831 65.8591 66.7744 65.8591 68.746V76.9672ZM78.6045 63.9752V61.8451H73.8653V84.1848H78.6045V74.8545C79.4481 76.1222 81.0816 77.1785 83.3615 77.1785C87.1493 77.1785 90.1472 74.1505 90.1472 69.3797C90.1472 64.6089 87.1493 61.6162 83.3615 61.6162C81.0816 61.6162 79.4481 62.6551 78.6045 63.9752ZM85.3363 69.3797C85.3363 71.7915 83.7385 73.147 81.9435 73.147C80.1662 73.147 78.5684 71.809 78.5684 69.3972C78.5684 66.9857 80.1662 65.6652 81.9435 65.6652C83.7385 65.6652 85.3363 66.9679 85.3363 69.3797ZM92.6422 76.9672H97.3636V56.8986H92.6422V76.9672ZM100.792 76.9672H105.531V61.8451H100.792V76.9672ZM103.18 60.2607C104.831 60.2607 105.962 59.1519 105.962 57.7786C105.962 56.3702 104.831 55.2614 103.18 55.2614C101.492 55.2614 100.362 56.3702 100.362 57.7786C100.362 59.1519 101.492 60.2607 103.18 60.2607ZM109.427 76.9672H114.148V65.6831H116.697V61.8451H114.148V61.7044C114.148 60.1026 114.794 59.5567 116.607 59.6799V55.7366C111.904 55.4903 109.427 57.4441 109.427 61.4052V61.8451H107.703V65.6831H109.427V76.9672ZM126.014 71.3164L122.441 61.8451H117.164L123.447 76.4567L119.892 84.1673H124.991L134.666 61.8451H129.55L126.014 71.3164Z" fill="white"/>
<path fill-rule="evenodd" clip-rule="evenodd" d="M77.3267 105.033C76.1651 105.375 75.5186 108.064 76.0756 110.237C76.1711 110.609 76.1841 110.72 76.1841 111.165V111.67L76.05 111.725C75.9763 111.755 75.7756 111.801 75.604 111.826C75.4324 111.851 75.2599 111.889 75.2206 111.909C75.1814 111.93 75.0316 111.965 74.8879 111.986C73.9258 112.133 72.5334 112.727 71.1948 113.562C70.3897 114.064 69.9956 113.959 69.5826 113.131C68.8047 111.573 66.3929 109.816 65.2991 110.011C63.4259 110.344 64.8706 113.394 67.6724 115.02C68.4597 115.478 68.6052 115.804 68.2606 116.339C68.1768 116.469 68.0314 116.694 67.9375 116.839C67.8435 116.984 67.7666 117.115 67.7666 117.13C67.7666 117.145 67.7154 117.235 67.6527 117.331C67.0937 118.188 66.4579 119.937 66.2946 121.068C66.2234 121.561 65.7978 121.693 65.0148 121.466C62.3307 120.688 58.7022 121.801 59.5108 123.154C59.7166 123.499 60.287 123.955 60.5676 124C60.6394 124.011 60.8357 124.067 61.0039 124.125C61.8195 124.403 63.8637 124.417 64.8357 124.15C65.0549 124.09 65.2432 124.069 65.6333 124.059C66.242 124.045 66.2225 124.032 66.306 124.528C66.5725 126.111 67.1472 127.544 68.0889 128.973C68.2039 129.148 68.3576 129.39 68.4303 129.512L68.5626 129.734L68.451 129.872C68.2692 130.097 67.9921 130.322 67.6255 130.543C66.227 131.386 64.9423 132.808 64.5955 133.895C63.6645 136.816 67.6373 135.692 69.553 132.493C70.0439 131.673 70.3861 131.509 70.9018 131.844C72.3136 132.763 73.5575 133.313 74.8267 133.579C75.02 133.619 75.2304 133.674 75.2944 133.7C75.3583 133.726 75.5078 133.758 75.6265 133.772C76.1742 133.833 76.1841 133.845 76.1841 134.418C76.1841 134.787 76.1706 134.882 76.0748 135.188C75.66 136.509 75.8221 138.412 76.4545 139.647C77.801 142.276 79.7318 138.93 78.9284 135.36C78.6528 134.135 78.7377 133.892 79.4935 133.739C81.2799 133.378 82.2258 133 83.8342 132.007C84.668 131.492 84.8537 131.551 85.4391 132.522C86.906 134.953 89.8117 136.404 90.5126 135.055C90.8177 134.468 90.4679 133.575 89.4114 132.243C89.0939 131.842 88.1358 131.012 87.659 130.724C87.11 130.392 86.6036 129.995 86.5102 129.824C86.4456 129.706 86.4762 129.639 86.8753 129.031C87.7936 127.631 88.1512 126.832 88.5042 125.392C88.578 125.091 88.6812 124.67 88.7336 124.457L88.8289 124.069L89.3142 124.07C89.7109 124.071 89.8457 124.085 90.053 124.149C92.5713 124.919 96.2435 123.781 95.5463 122.445C95.0157 121.429 92.0752 120.849 90.2199 121.394C89.8392 121.506 89.5371 121.539 89.134 121.513L88.8282 121.493L88.7513 121.193C88.709 121.028 88.6058 120.607 88.522 120.258C88.1707 118.794 87.7588 117.877 86.8268 116.483C86.3585 115.783 86.4552 115.516 87.3532 115.032C90.1723 113.512 91.6201 109.984 89.4217 109.992C88.8019 109.994 88.6183 110.075 87.4972 110.838C86.7622 111.339 85.859 112.342 85.3847 113.184C84.9049 114.035 84.644 114.082 83.6855 113.487C82.4714 112.734 81.3842 112.262 80.3494 112.039C80.2051 112.007 80.0223 111.966 79.9431 111.947C79.864 111.928 79.6401 111.881 79.4456 111.843C78.7051 111.699 78.5818 111.436 78.8407 110.555C79.5653 108.087 78.6233 104.651 77.3267 105.033ZM76.1327 115.115C76.1808 115.22 76.197 118.404 76.1502 118.574C76.0948 118.776 76.0181 118.836 75.6927 118.93L75.4144 119.01L74.1446 117.763C73.4063 117.038 72.8746 116.489 72.8746 116.452C72.8746 116.307 73.8112 115.777 74.5839 115.484C75.5771 115.106 76.0744 114.988 76.1327 115.115ZM79.4774 115.175C80.4116 115.42 82.1194 116.239 82.1194 116.441C82.1194 116.464 81.5392 117.052 80.83 117.747L79.5407 119.012L79.2563 118.915C78.723 118.734 78.7285 118.758 78.7445 116.758C78.7593 114.911 78.7282 114.978 79.4774 115.175ZM71.2557 118.466C71.3449 118.536 71.9083 119.078 72.5079 119.672C73.7548 120.907 73.6686 120.761 73.4514 121.273L73.3355 121.546L71.999 121.546C70.2882 121.546 69.638 121.519 69.6098 121.447C69.5292 121.24 69.9662 120.014 70.4682 119.037C70.8919 118.213 70.9112 118.199 71.2557 118.466ZM84.1645 118.439C84.6153 119.05 85.2839 120.679 85.3707 121.378L85.3915 121.546H81.689L81.5937 121.361C81.5413 121.26 81.4681 121.091 81.431 120.985L81.3636 120.793L81.6401 120.508C83.4038 118.69 83.9931 118.207 84.1645 118.439ZM73.3649 124.179C73.4186 124.269 73.5006 124.445 73.5471 124.571L73.6318 124.8L72.7764 125.652C72.3059 126.12 71.7131 126.702 71.459 126.944L70.997 127.384L70.9119 127.287C70.3878 126.69 69.4457 124.33 69.6508 124.128C69.7299 124.051 70.1656 124.03 71.9289 124.022L73.2673 124.016L73.3649 124.179ZM84.3637 124.039C85.4529 124.067 85.3919 124.039 85.3211 124.47C85.2464 124.924 84.8356 125.986 84.5112 126.563C83.9708 127.525 84.1912 127.583 82.6476 126.069L81.3597 124.805L81.4534 124.561C81.505 124.426 81.5875 124.249 81.6369 124.166L81.7268 124.016H82.5827C83.0535 124.016 83.855 124.026 84.3637 124.039ZM80.6289 127.659C82.3301 129.299 82.2805 129.195 81.5439 129.58C80.7051 130.017 79.5397 130.448 78.9806 130.527L78.8094 130.551L78.828 126.86L79.1158 126.745C79.5444 126.574 79.4347 126.508 80.6289 127.659ZM75.9772 126.784L76.1841 126.879V130.553L76.0118 130.533C75.7732 130.505 74.9881 130.276 74.7272 130.158C74.6085 130.104 74.4304 130.032 74.3315 129.997C73.8716 129.834 72.8747 129.284 72.8747 129.192C72.8746 129.088 75.1112 126.86 75.3711 126.705C75.4804 126.64 75.7374 126.674 75.9772 126.784Z" fill="url(#paint1_linear_101_41)"/>
<path d="M828 2C828 0.895429 828.895 1.01754e-08 830 1.01754e-08C831.105 1.01754e-08 832 0.895431 832 2V148C832 149.105 831.105 150 830 150C828.895 150 828 149.105 828 148V2Z" fill="#E3E3E3"/>
<path d="M887 27C887 20.3726 892.373 15 899 15H1364C1370.63 15 1376 20.3726 1376 27V123C1376 129.627 1370.63 135 1364 135H899C892.373 135 887 129.627 887 123V27Z" fill="white"/>
<path d="M234.21 105.824L212.156 78.5229V105.824H200V44.5496H212.156V72.0267L234.21 44.5496H248.884L223.877 74.9237L249.578 105.824H234.21Z" fill="url(#paint2_linear_101_41)"/>
<path d="M302.984 57.1908V105.824H290.742V99.6794C289.179 101.786 287.124 103.454 284.577 104.683C282.088 105.854 279.367 106.439 276.415 106.439C272.653 106.439 269.324 105.649 266.43 104.069C263.536 102.43 261.249 100.06 259.571 96.958C257.95 93.7977 257.14 90.0522 257.14 85.7214V57.1908H269.295V83.9656C269.295 87.8282 270.25 90.813 272.161 92.9198C274.071 94.9682 276.676 95.9924 279.975 95.9924C283.332 95.9924 285.966 94.9682 287.876 92.9198C289.786 90.813 290.742 87.8282 290.742 83.9656V57.1908H302.984Z" fill="url(#paint3_linear_101_41)"/>
<path d="M327.134 64.3015C328.696 61.9606 330.838 60.0585 333.559 58.5954C336.337 57.1323 339.492 56.4008 343.023 56.4008C347.133 56.4008 350.837 57.4249 354.137 59.4733C357.494 61.5216 360.128 64.4478 362.038 68.2519C364.006 71.9974 364.99 76.3575 364.99 81.332C364.99 86.3066 364.006 90.7252 362.038 94.5878C360.128 98.3919 357.494 101.347 354.137 103.454C350.837 105.561 347.133 106.614 343.023 106.614C339.434 106.614 336.279 105.912 333.559 104.508C330.896 103.045 328.754 101.172 327.134 98.8893V105.824H314.978V40.8626H327.134V64.3015ZM352.574 81.332C352.574 78.4058 351.966 75.8893 350.751 73.7824C349.593 71.617 348.03 69.9784 346.062 68.8664C344.152 67.7544 342.068 67.1985 339.81 67.1985C337.611 67.1985 335.527 67.7837 333.559 68.9542C331.649 70.0662 330.086 71.7048 328.87 73.8702C327.712 76.0356 327.134 78.5814 327.134 81.5076C327.134 84.4338 327.712 86.9796 328.87 89.145C330.086 91.3104 331.649 92.9784 333.559 94.1489C335.527 95.2608 337.611 95.8168 339.81 95.8168C342.068 95.8168 344.152 95.2316 346.062 94.0611C348.03 92.8906 349.593 91.2226 350.751 89.0573C351.966 86.8919 352.574 84.3168 352.574 81.332Z" fill="url(#paint4_linear_101_41)"/>
<path d="M418.539 80.4542C418.539 82.2099 418.424 83.7901 418.192 85.1947H383.027C383.316 88.7061 384.532 91.4567 386.674 93.4466C388.816 95.4364 391.449 96.4313 394.575 96.4313C399.09 96.4313 402.303 94.4707 404.213 90.5496H417.324C415.934 95.2315 413.272 99.0941 409.336 102.137C405.4 105.122 400.566 106.614 394.836 106.614C390.205 106.614 386.037 105.59 382.332 103.542C378.686 101.435 375.82 98.4796 373.737 94.6756C371.711 90.8715 370.698 86.4822 370.698 81.5076C370.698 76.4745 371.711 72.056 373.737 68.2519C375.763 64.4478 378.599 61.5216 382.246 59.4733C385.892 57.4249 390.089 56.4008 394.836 56.4008C399.408 56.4008 403.489 57.3957 407.078 59.3855C410.725 61.3753 413.532 64.2137 415.5 67.9008C417.526 71.5293 418.539 75.7137 418.539 80.4542ZM405.949 76.9427C405.891 73.7824 404.763 71.2659 402.563 69.3931C400.364 67.4618 397.672 66.4962 394.488 66.4962C391.478 66.4962 388.931 67.4326 386.847 69.3053C384.821 71.1196 383.577 73.6654 383.114 76.9427H405.949Z" fill="url(#paint5_linear_101_41)"/>
<path d="M445.819 106.614C441.883 106.614 438.352 105.912 435.226 104.508C432.101 103.045 429.611 101.084 427.759 98.6259C425.965 96.1679 424.981 93.4466 424.807 90.4618H437.05C437.281 92.3346 438.178 93.8855 439.741 95.1145C441.362 96.3435 443.359 96.958 445.732 96.958C448.048 96.958 449.842 96.4898 451.116 95.5534C452.447 94.617 453.113 93.4173 453.113 91.9542C453.113 90.374 452.302 89.2036 450.682 88.4427C449.119 87.6234 446.601 86.7455 443.128 85.8092C439.539 84.9313 436.587 84.0242 434.271 83.0878C432.014 82.1514 430.046 80.7176 428.367 78.7863C426.746 76.855 425.936 74.2506 425.936 70.9733C425.936 68.2812 426.688 65.8232 428.193 63.5992C429.756 61.3753 431.956 59.6196 434.792 58.3321C437.686 57.0445 441.073 56.4008 444.951 56.4008C450.682 56.4008 455.254 57.8639 458.67 60.7901C462.085 63.6578 463.966 67.5496 464.313 72.4656H452.679C452.505 70.5343 451.695 69.0127 450.247 67.9008C448.858 66.7303 446.977 66.145 444.604 66.145C442.404 66.145 440.696 66.5547 439.481 67.374C438.323 68.1934 437.744 69.3346 437.744 70.7977C437.744 72.4364 438.555 73.6947 440.175 74.5725C441.796 75.3919 444.314 76.2405 447.729 77.1183C451.202 77.9962 454.068 78.9033 456.325 79.8397C458.583 80.7761 460.522 82.2392 462.143 84.229C463.821 86.1603 464.69 88.7354 464.747 91.9542C464.747 94.7633 463.966 97.2799 462.403 99.5038C460.898 101.728 458.699 103.483 455.804 104.771C452.968 106 449.64 106.614 445.819 106.614Z" fill="url(#paint6_linear_101_41)"/>
<path d="M480.891 51.3969C478.749 51.3969 476.954 50.7239 475.507 49.3779C474.118 47.9733 473.423 46.2468 473.423 44.1985C473.423 42.1501 474.118 40.4529 475.507 39.1069C476.954 37.7023 478.749 37 480.891 37C483.032 37 484.798 37.7023 486.187 39.1069C487.634 40.4529 488.358 42.1501 488.358 44.1985C488.358 46.2468 487.634 47.9733 486.187 49.3779C484.798 50.7239 483.032 51.3969 480.891 51.3969ZM486.882 57.1908V105.824H474.726V57.1908H486.882Z" fill="url(#paint7_linear_101_41)"/>
<path d="M558.628 56.4885C564.533 56.4885 569.279 58.3321 572.868 62.0191C576.515 65.6476 578.338 70.7392 578.338 77.2939V105.824H566.182V78.9618C566.182 75.1578 565.227 72.2608 563.317 70.271C561.407 68.2226 558.802 67.1985 555.503 67.1985C552.203 67.1985 549.57 68.2226 547.601 70.271C545.691 72.2608 544.736 75.1578 544.736 78.9618V105.824H532.58V78.9618C532.58 75.1578 531.625 72.2608 529.715 70.271C527.805 68.2226 525.2 67.1985 521.901 67.1985C518.543 67.1985 515.881 68.2226 513.913 70.271C512.002 72.2608 511.047 75.1578 511.047 78.9618V105.824H498.892V57.1908H511.047V63.0725C512.61 61.0242 514.607 59.4148 517.038 58.2443C519.527 57.0738 522.248 56.4885 525.2 56.4885C528.963 56.4885 532.32 57.3079 535.272 58.9466C538.224 60.5267 540.51 62.8092 542.131 65.7939C543.694 62.9847 545.952 60.7315 548.904 59.0343C551.914 57.3371 555.155 56.4885 558.628 56.4885Z" fill="url(#paint8_linear_101_41)"/>
<path d="M602.029 64.2137C603.592 61.9898 605.734 60.1463 608.454 58.6832C611.233 57.1616 614.387 56.4008 617.918 56.4008C622.028 56.4008 625.733 57.4249 629.032 59.4733C632.389 61.5216 635.023 64.4478 636.933 68.2519C638.902 71.9974 639.886 76.3575 639.886 81.332C639.886 86.3066 638.902 90.7252 636.933 94.5878C635.023 98.3919 632.389 101.347 629.032 103.454C625.733 105.561 622.028 106.614 617.918 106.614C614.387 106.614 611.262 105.883 608.541 104.42C605.878 102.957 603.708 101.113 602.029 98.8893V129H589.873V57.1908H602.029V64.2137ZM627.469 81.332C627.469 78.4058 626.861 75.8893 625.646 73.7824C624.488 71.617 622.925 69.9784 620.957 68.8664C619.047 67.7544 616.963 67.1985 614.706 67.1985C612.506 67.1985 610.422 67.7837 608.454 68.9542C606.544 70.0662 604.981 71.7048 603.766 73.8702C602.608 76.0356 602.029 78.5814 602.029 81.5076C602.029 84.4338 602.608 86.9796 603.766 89.145C604.981 91.3104 606.544 92.9784 608.454 94.1489C610.422 95.2608 612.506 95.8168 614.706 95.8168C616.963 95.8168 619.047 95.2316 620.957 94.0611C622.925 92.8906 624.488 91.2226 625.646 89.0573C626.861 86.8919 627.469 84.3168 627.469 81.332Z" fill="url(#paint9_linear_101_41)"/>
<path d="M660.875 40.8626V105.824H648.719V40.8626H660.875Z" fill="url(#paint10_linear_101_41)"/>
<path d="M679.049 51.3969C676.908 51.3969 675.113 50.7239 673.666 49.3779C672.277 47.9733 671.582 46.2468 671.582 44.1985C671.582 42.1501 672.277 40.4529 673.666 39.1069C675.113 37.7023 676.908 37 679.049 37C681.191 37 682.956 37.7023 684.346 39.1069C685.793 40.4529 686.516 42.1501 686.516 44.1985C686.516 46.2468 685.793 47.9733 684.346 49.3779C682.956 50.7239 681.191 51.3969 679.049 51.3969ZM685.04 57.1908V105.824H672.885V57.1908H685.04Z" fill="url(#paint11_linear_101_41)"/>
<path d="M719.104 67.2863H710.682V105.824H698.353V67.2863H692.883V57.1908H698.353V54.7328C698.353 48.7634 700.031 44.374 703.389 41.5649C706.746 38.7557 711.811 37.4389 718.583 37.6145V47.9733C715.631 47.9148 713.576 48.4122 712.419 49.4656C711.261 50.5191 710.682 52.4211 710.682 55.1718V57.1908H719.104V67.2863Z" fill="url(#paint12_linear_101_41)"/>
<path d="M773 57.1908L743.219 128.824H730.281L740.7 104.595L721.425 57.1908H735.057L747.473 91.1641L760.063 57.1908H773Z" fill="url(#paint13_linear_101_41)"/>
<path d="M1005.55 51.14L991.902 100H980.352L971.182 65.21L961.592 100L950.112 100.07L936.952 51.14H947.452L956.062 89.08L966.002 51.14H976.922L986.302 88.87L994.982 51.14H1005.55Z" fill="#1B2731"/>
<path d="M1029.17 100.63C1025.44 100.63 1022.08 99.8133 1019.09 98.18C1016.1 96.5 1013.75 94.1433 1012.02 91.11C1010.34 88.0767 1009.5 84.5767 1009.5 80.61C1009.5 76.6433 1010.36 73.1433 1012.09 70.11C1013.86 67.0767 1016.27 64.7433 1019.3 63.11C1022.33 61.43 1025.72 60.59 1029.45 60.59C1033.18 60.59 1036.57 61.43 1039.6 63.11C1042.63 64.7433 1045.01 67.0767 1046.74 70.11C1048.51 73.1433 1049.4 76.6433 1049.4 80.61C1049.4 84.5767 1048.49 88.0767 1046.67 91.11C1044.9 94.1433 1042.47 96.5 1039.39 98.18C1036.36 99.8133 1032.95 100.63 1029.17 100.63ZM1029.17 92.09C1030.94 92.09 1032.6 91.67 1034.14 90.83C1035.73 89.9433 1036.99 88.6367 1037.92 86.91C1038.85 85.1833 1039.32 83.0833 1039.32 80.61C1039.32 76.9233 1038.34 74.1 1036.38 72.14C1034.47 70.1333 1032.11 69.13 1029.31 69.13C1026.51 69.13 1024.15 70.1333 1022.24 72.14C1020.37 74.1 1019.44 76.9233 1019.44 80.61C1019.44 84.2967 1020.35 87.1433 1022.17 89.15C1024.04 91.11 1026.37 92.09 1029.17 92.09Z" fill="#1B2731"/>
<path d="M1066.39 67.24C1067.65 65.1867 1069.28 63.5767 1071.29 62.41C1073.34 61.2433 1075.68 60.66 1078.29 60.66V70.95H1075.7C1072.62 70.95 1070.29 71.6733 1068.7 73.12C1067.16 74.5667 1066.39 77.0867 1066.39 80.68V100H1056.59V61.22H1066.39V67.24Z" fill="#1B2731"/>
<path d="M1107.85 100L1094.69 83.48V100H1084.89V48.2H1094.69V77.67L1107.71 61.22H1120.45L1103.37 80.68L1120.59 100H1107.85Z" fill="#1B2731"/>
<path d="M1140.61 100.63C1137.44 100.63 1134.59 100.07 1132.07 98.95C1129.55 97.7833 1127.54 96.22 1126.05 94.26C1124.6 92.3 1123.81 90.13 1123.67 87.75H1133.54C1133.73 89.2433 1134.45 90.48 1135.71 91.46C1137.02 92.44 1138.63 92.93 1140.54 92.93C1142.41 92.93 1143.85 92.5567 1144.88 91.81C1145.95 91.0633 1146.49 90.1067 1146.49 88.94C1146.49 87.68 1145.84 86.7467 1144.53 86.14C1143.27 85.4867 1141.24 84.7867 1138.44 84.04C1135.55 83.34 1133.17 82.6167 1131.3 81.87C1129.48 81.1233 1127.89 79.98 1126.54 78.44C1125.23 76.9 1124.58 74.8233 1124.58 72.21C1124.58 70.0633 1125.19 68.1033 1126.4 66.33C1127.66 64.5567 1129.43 63.1567 1131.72 62.13C1134.05 61.1033 1136.78 60.59 1139.91 60.59C1144.53 60.59 1148.22 61.7567 1150.97 64.09C1153.72 66.3767 1155.24 69.48 1155.52 73.4H1146.14C1146 71.86 1145.35 70.6467 1144.18 69.76C1143.06 68.8267 1141.54 68.36 1139.63 68.36C1137.86 68.36 1136.48 68.6867 1135.5 69.34C1134.57 69.9933 1134.1 70.9033 1134.1 72.07C1134.1 73.3767 1134.75 74.38 1136.06 75.08C1137.37 75.7333 1139.4 76.41 1142.15 77.11C1144.95 77.81 1147.26 78.5333 1149.08 79.28C1150.9 80.0267 1152.46 81.1933 1153.77 82.78C1155.12 84.32 1155.82 86.3733 1155.87 88.94C1155.87 91.18 1155.24 93.1867 1153.98 94.96C1152.77 96.7333 1150.99 98.1333 1148.66 99.16C1146.37 100.14 1143.69 100.63 1140.61 100.63Z" fill="#1B2731"/>
<path d="M1185.75 60.66C1188.69 60.66 1191.31 61.3133 1193.59 62.62C1195.88 63.88 1197.65 65.77 1198.91 68.29C1200.22 70.7633 1200.87 73.75 1200.87 77.25V100H1191.07V78.58C1191.07 75.5 1190.3 73.1433 1188.76 71.51C1187.22 69.83 1185.12 68.99 1182.46 68.99C1179.76 68.99 1177.61 69.83 1176.02 71.51C1174.48 73.1433 1173.71 75.5 1173.71 78.58V100H1163.91V48.2H1173.71V66.05C1174.97 64.37 1176.65 63.0633 1178.75 62.13C1180.85 61.15 1183.19 60.66 1185.75 60.66Z" fill="#1B2731"/>
<path d="M1227.41 100.63C1223.68 100.63 1220.32 99.8133 1217.33 98.18C1214.35 96.5 1211.99 94.1433 1210.26 91.11C1208.58 88.0767 1207.74 84.5767 1207.74 80.61C1207.74 76.6433 1208.61 73.1433 1210.33 70.11C1212.11 67.0767 1214.51 64.7433 1217.54 63.11C1220.58 61.43 1223.96 60.59 1227.69 60.59C1231.43 60.59 1234.81 61.43 1237.84 63.11C1240.88 64.7433 1243.26 67.0767 1244.98 70.11C1246.76 73.1433 1247.64 76.6433 1247.64 80.61C1247.64 84.5767 1246.73 88.0767 1244.91 91.11C1243.14 94.1433 1240.71 96.5 1237.63 98.18C1234.6 99.8133 1231.19 100.63 1227.41 100.63ZM1227.41 92.09C1229.19 92.09 1230.84 91.67 1232.38 90.83C1233.97 89.9433 1235.23 88.6367 1236.16 86.91C1237.1 85.1833 1237.56 83.0833 1237.56 80.61C1237.56 76.9233 1236.58 74.1 1234.62 72.14C1232.71 70.1333 1230.35 69.13 1227.55 69.13C1224.75 69.13 1222.4 70.1333 1220.48 72.14C1218.62 74.1 1217.68 76.9233 1217.68 80.61C1217.68 84.2967 1218.59 87.1433 1220.41 89.15C1222.28 91.11 1224.61 92.09 1227.41 92.09Z" fill="#1B2731"/>
<path d="M1264.63 66.82C1265.89 65.0467 1267.62 63.5767 1269.81 62.41C1272.05 61.1967 1274.6 60.59 1277.44 60.59C1280.76 60.59 1283.74 61.4067 1286.4 63.04C1289.11 64.6733 1291.23 67.0067 1292.77 70.04C1294.36 73.0267 1295.15 76.5033 1295.15 80.47C1295.15 84.4367 1294.36 87.96 1292.77 91.04C1291.23 94.0733 1289.11 96.43 1286.4 98.11C1283.74 99.79 1280.76 100.63 1277.44 100.63C1274.6 100.63 1272.08 100.047 1269.88 98.88C1267.74 97.7133 1265.99 96.2433 1264.63 94.47V118.48H1254.83V61.22H1264.63V66.82ZM1285.14 80.47C1285.14 78.1367 1284.65 76.13 1283.67 74.45C1282.74 72.7233 1281.48 71.4167 1279.89 70.53C1278.35 69.6433 1276.67 69.2 1274.85 69.2C1273.08 69.2 1271.4 69.6667 1269.81 70.6C1268.27 71.4867 1267.01 72.7933 1266.03 74.52C1265.1 76.2467 1264.63 78.2767 1264.63 80.61C1264.63 82.9433 1265.1 84.9733 1266.03 86.7C1267.01 88.4267 1268.27 89.7567 1269.81 90.69C1271.4 91.5767 1273.08 92.02 1274.85 92.02C1276.67 92.02 1278.35 91.5533 1279.89 90.62C1281.48 89.6867 1282.74 88.3567 1283.67 86.63C1284.65 84.9033 1285.14 82.85 1285.14 80.47Z" fill="#1B2731"/>
<path d="M1317.11 100.63C1313.94 100.63 1311.09 100.07 1308.57 98.95C1306.05 97.7833 1304.05 96.22 1302.55 94.26C1301.11 92.3 1300.31 90.13 1300.17 87.75H1310.04C1310.23 89.2433 1310.95 90.48 1312.21 91.46C1313.52 92.44 1315.13 92.93 1317.04 92.93C1318.91 92.93 1320.36 92.5567 1321.38 91.81C1322.46 91.0633 1322.99 90.1067 1322.99 88.94C1322.99 87.68 1322.34 86.7467 1321.03 86.14C1319.77 85.4867 1317.74 84.7867 1314.94 84.04C1312.05 83.34 1309.67 82.6167 1307.8 81.87C1305.98 81.1233 1304.4 79.98 1303.04 78.44C1301.74 76.9 1301.08 74.8233 1301.08 72.21C1301.08 70.0633 1301.69 68.1033 1302.9 66.33C1304.16 64.5567 1305.94 63.1567 1308.22 62.13C1310.56 61.1033 1313.29 60.59 1316.41 60.59C1321.03 60.59 1324.72 61.7567 1327.47 64.09C1330.23 66.3767 1331.74 69.48 1332.02 73.4H1322.64C1322.5 71.86 1321.85 70.6467 1320.68 69.76C1319.56 68.8267 1318.05 68.36 1316.13 68.36C1314.36 68.36 1312.98 68.6867 1312 69.34C1311.07 69.9933 1310.6 70.9033 1310.6 72.07C1310.6 73.3767 1311.26 74.38 1312.56 75.08C1313.87 75.7333 1315.9 76.41 1318.65 77.11C1321.45 77.81 1323.76 78.5333 1325.58 79.28C1327.4 80.0267 1328.97 81.1933 1330.27 82.78C1331.63 84.32 1332.33 86.3733 1332.37 88.94C1332.37 91.18 1331.74 93.1867 1330.48 94.96C1329.27 96.7333 1327.5 98.1333 1325.16 99.16C1322.88 100.14 1320.19 100.63 1317.11 100.63Z" fill="#1B2731"/>
<path d="M915 37C915 40.3137 912.314 43 909 43C905.686 43 903 40.3137 903 37C903 33.6863 905.686 31 909 31C912.314 31 915 33.6863 915 37Z" fill="#1B2731"/>
<path d="M915 113C915 116.314 912.314 119 909 119C905.686 119 903 116.314 903 113C903 109.686 905.686 107 909 107C912.314 107 915 109.686 915 113Z" fill="#1B2731"/>
<path d="M1360 37C1360 40.3137 1357.31 43 1354 43C1350.69 43 1348 40.3137 1348 37C1348 33.6863 1350.69 31 1354 31C1357.31 31 1360 33.6863 1360 37Z" fill="#1B2731"/>
<path d="M1360 113C1360 116.314 1357.31 119 1354 119C1350.69 119 1348 116.314 1348 113C1348 109.686 1350.69 107 1354 107C1357.31 107 1360 109.686 1360 113Z" fill="#1B2731"/>
<defs>
<linearGradient id="paint0_linear_101_41" x1="9.26526" y1="0.0110212" x2="42.2509" y2="298.445" gradientUnits="userSpaceOnUse">
<stop stop-color="#5CFF68"/>
<stop offset="1" stop-color="#05CAFF"/>
</linearGradient>
<linearGradient id="paint1_linear_101_41" x1="1708.87" y1="23.4854" x2="1713.99" y2="226.795" gradientUnits="userSpaceOnUse">
<stop stop-color="#5CFF68"/>
<stop offset="1" stop-color="#05CAFF"/>
</linearGradient>
<linearGradient id="paint2_linear_101_41" x1="-5.01556" y1="-45.2281" x2="60.5361" y2="373.928" gradientUnits="userSpaceOnUse">
<stop stop-color="#5CFF68"/>
<stop offset="1" stop-color="#05CAFF"/>
</linearGradient>
<linearGradient id="paint3_linear_101_41" x1="-5.01556" y1="-45.2281" x2="60.5361" y2="373.928" gradientUnits="userSpaceOnUse">
<stop stop-color="#5CFF68"/>
<stop offset="1" stop-color="#05CAFF"/>
</linearGradient>
<linearGradient id="paint4_linear_101_41" x1="-5.01556" y1="-45.2281" x2="60.5361" y2="373.928" gradientUnits="userSpaceOnUse">
<stop stop-color="#5CFF68"/>
<stop offset="1" stop-color="#05CAFF"/>
</linearGradient>
<linearGradient id="paint5_linear_101_41" x1="-5.01556" y1="-45.2281" x2="60.5361" y2="373.928" gradientUnits="userSpaceOnUse">
<stop stop-color="#5CFF68"/>
<stop offset="1" stop-color="#05CAFF"/>
</linearGradient>
<linearGradient id="paint6_linear_101_41" x1="-5.01556" y1="-45.2281" x2="60.5361" y2="373.928" gradientUnits="userSpaceOnUse">
<stop stop-color="#5CFF68"/>
<stop offset="1" stop-color="#05CAFF"/>
</linearGradient>
<linearGradient id="paint7_linear_101_41" x1="-5.01556" y1="-45.2281" x2="60.5361" y2="373.928" gradientUnits="userSpaceOnUse">
<stop stop-color="#5CFF68"/>
<stop offset="1" stop-color="#05CAFF"/>
</linearGradient>
<linearGradient id="paint8_linear_101_41" x1="-5.01556" y1="-45.2281" x2="60.5361" y2="373.928" gradientUnits="userSpaceOnUse">
<stop stop-color="#5CFF68"/>
<stop offset="1" stop-color="#05CAFF"/>
</linearGradient>
<linearGradient id="paint9_linear_101_41" x1="-5.01556" y1="-45.2281" x2="60.5361" y2="373.928" gradientUnits="userSpaceOnUse">
<stop stop-color="#5CFF68"/>
<stop offset="1" stop-color="#05CAFF"/>
</linearGradient>
<linearGradient id="paint10_linear_101_41" x1="-5.01556" y1="-45.2281" x2="60.5361" y2="373.928" gradientUnits="userSpaceOnUse">
<stop stop-color="#5CFF68"/>
<stop offset="1" stop-color="#05CAFF"/>
</linearGradient>
<linearGradient id="paint11_linear_101_41" x1="-5.01556" y1="-45.2281" x2="60.5361" y2="373.928" gradientUnits="userSpaceOnUse">
<stop stop-color="#5CFF68"/>
<stop offset="1" stop-color="#05CAFF"/>
</linearGradient>
<linearGradient id="paint12_linear_101_41" x1="-5.01556" y1="-45.2281" x2="60.5361" y2="373.928" gradientUnits="userSpaceOnUse">
<stop stop-color="#5CFF68"/>
<stop offset="1" stop-color="#05CAFF"/>
</linearGradient>
<linearGradient id="paint13_linear_101_41" x1="-5.01556" y1="-45.2281" x2="60.5361" y2="373.928" gradientUnits="userSpaceOnUse">
<stop stop-color="#5CFF68"/>
<stop offset="1" stop-color="#05CAFF"/>
</linearGradient>
</defs>
</svg>