<svg width="516" height="353" viewBox="0 0 516 353" fill="none" xmlns="http://www.w3.org/2000/svg">
<path d="M387.701 332.886L424.76 333.321L461.813 333.749C466.676 333.813 471.526 333.251 476.246 332.078C480.957 330.894 485.482 329.065 489.693 326.642C492.934 324.79 495.959 322.581 498.71 320.058C501.824 317.188 504.539 313.913 506.782 310.32C511.968 301.95 514.568 292.235 514.256 282.393C513.946 272.274 510.829 262.44 505.253 253.99C491.985 234.018 478.717 214.05 465.448 194.086L425.623 134.189C420.424 126.337 414.419 119.049 407.705 112.445C400.997 105.845 393.577 100.011 385.581 95.05C382.999 93.4532 380.281 91.8904 377.427 90.4023C374.573 88.9142 371.603 87.4805 368.498 86.1419C354.194 80.0332 338.9 76.5706 323.359 75.9223C309.09 75.2428 295.643 76.4998 283.031 77.7093C264.148 79.5236 256.402 81.1612 246.801 84.0626C237.2 86.964 225.737 91.109 199.454 97.9515C178.43 103.387 164.12 107.41 153.826 110.692C143.531 113.974 137.11 116.563 131.871 119.199C130.988 119.641 130.111 120.103 129.153 120.626C128.195 121.149 127.156 121.741 125.96 122.434C116.32 128.041 107.574 135.059 100.01 143.253C92.2432 151.543 84.7688 161.477 75.847 173.966C69.385 183.031 67.0136 186.687 63.9559 191.307C60.8982 195.928 57.2561 201.5 48.2732 214.457C41.3831 224.365 35.7909 232.172 30.6063 239.918C25.4218 247.664 20.5838 255.356 15.2769 265.019C10.371 273.92 6.82403 281.286 4.64286 288.121C2.48548 294.587 1.63548 301.417 2.14232 308.214C2.29278 310.61 2.58548 312.994 3.01887 315.355C3.59813 318.388 4.55221 321.337 5.85916 324.135C10.3982 333.851 18.7152 340.884 28.2417 345.369C37.4917 349.696 47.6429 351.746 57.8472 351.348C62.2802 351.123 66.6698 350.363 70.9207 349.086C74.4978 347.971 78.0154 346.674 81.4596 345.199C87.0738 342.911 92.4552 340.09 97.5297 336.773C101.389 334.245 105.065 331.447 108.531 328.402L116.467 321.369L124.404 314.336L124.628 324.08L124.845 333.824L256.259 333.355L387.701 332.886Z" fill="#104FC1" stroke="black" stroke-width="2.03848" stroke-miterlimit="10" stroke-linecap="round"/>
<path d="M363.823 200.086L378.093 222.509L392.362 244.933H369.939C368.915 237.472 367.887 230.011 366.854 222.55L363.776 200.168C363.776 200.168 363.776 200.127 363.776 200.12C363.776 200.115 363.778 200.109 363.781 200.105C363.784 200.1 363.788 200.096 363.792 200.093C363.797 200.09 363.802 200.088 363.807 200.086C363.812 200.085 363.818 200.085 363.823 200.086Z" fill="black" stroke="black" stroke-width="2.03848" stroke-miterlimit="10" stroke-linecap="round"/>
<path d="M369.911 244.878H419.446" stroke="black" stroke-width="2.03848" stroke-miterlimit="10" stroke-linecap="round"/>
<path d="M225.41 127.299L236.67 141.69L247.922 156.089L251.184 138.266L254.438 120.449L239.924 123.874L225.41 127.299Z" fill="#FFF8F8" stroke="black" stroke-width="2.03848" stroke-miterlimit="10" stroke-linecap="round"/>
<path d="M180.183 103.047L191.544 160.485L202.906 217.923L225.417 187.006L247.922 156.089L224.772 126.47L201.621 96.8505L190.899 99.949L180.183 103.047Z" fill="#104FC1" stroke="black" stroke-width="2.03848" stroke-miterlimit="10" stroke-linecap="round"/>
<path d="M261.091 82.7374L254.506 119.43L247.922 156.123L287.333 175.454L326.743 194.793L304.884 136.268L282.998 77.7091L272.044 80.1961L261.091 82.7374Z" fill="#104FC1" stroke="black" stroke-width="2.03848" stroke-miterlimit="10" stroke-linecap="round"/>
<path d="M247.936 157.448V333.824H307.514L277.786 245.626L248.065 157.428C248.059 157.413 248.049 157.4 248.035 157.391C248.022 157.383 248.006 157.379 247.99 157.38C247.974 157.383 247.96 157.392 247.95 157.404C247.94 157.416 247.935 157.432 247.936 157.448Z" fill="#FFF8F8" stroke="black" stroke-width="2.03848" stroke-miterlimit="10" stroke-linecap="round"/>
<path d="M311.659 189.391C311.659 188.024 311.391 186.669 310.868 185.406C310.345 184.143 309.578 182.995 308.612 182.028C307.645 181.061 306.497 180.294 305.233 179.772C303.97 179.249 302.616 178.98 301.249 178.981H135.676C134.309 178.98 132.955 179.249 131.692 179.772C130.428 180.294 129.28 181.061 128.314 182.028C127.347 182.995 126.58 184.143 126.057 185.406C125.534 186.669 125.266 188.024 125.267 189.391V202.559H311.659V189.391Z" fill="#14AF6C" stroke="black" stroke-width="2.03848" stroke-miterlimit="10" stroke-linecap="round"/>
<path d="M125.267 202.559V309.919C125.256 312.87 126.354 315.718 128.345 317.897C129.277 318.928 130.412 319.754 131.68 320.322C132.949 320.891 134.321 321.189 135.71 321.199H301.249C302.638 321.189 304.011 320.891 305.279 320.322C306.547 319.754 307.683 318.928 308.614 317.897C310.594 315.711 311.681 312.861 311.659 309.912V202.552H125.267V202.559Z" fill="#FFF8F8" stroke="black" stroke-width="2.03848" stroke-miterlimit="10" stroke-linecap="round"/>
<path d="M392.369 244.878L378.045 222.407L363.721 199.93" stroke="black" stroke-width="2.03848" stroke-miterlimit="10" stroke-linecap="round"/>
<path d="M46.8801 216.605L82.5739 236.595L118.268 256.586C118.268 256.586 121.264 251.83 125.742 245.035C130.22 238.24 136.179 229.406 142.091 221.334C145.026 217.318 148.152 213.452 151.427 209.721C154.702 205.991 158.14 202.39 161.687 198.904C163.216 197.395 164.976 195.364 165.764 193.318C166.553 191.273 166.403 189.241 164.086 187.699C162.905 186.92 161.532 186.483 160.118 186.435C158.71 186.387 157.311 186.68 156.041 187.291L141.948 194.086L127.855 200.881C127.346 201.129 126.814 201.325 126.265 201.466C125.719 201.603 125.158 201.674 124.594 201.676C124.072 201.684 123.551 201.622 123.045 201.493C122.492 201.348 121.971 201.101 121.509 200.766C120.882 200.268 120.367 199.643 120 198.932C119.632 198.221 119.419 197.44 119.375 196.641C119.222 194.688 119.753 192.742 120.877 191.137L127.305 179.586L133.74 168.034C134.34 166.961 135.289 166.125 136.43 165.664C137.57 165.203 138.834 165.145 140.012 165.5L157.311 170.712L174.611 175.93C174.611 175.93 175.807 176.331 177.601 176.732C179.768 177.236 181.981 177.516 184.206 177.568C185.771 177.612 187.301 177.099 188.524 176.121C189.747 175.143 190.584 173.763 190.885 172.227C191.26 170.702 191.087 169.095 190.396 167.685C189.706 166.275 188.541 165.153 187.107 164.515L186.985 164.454L186.856 164.399C184.138 163.176 181.467 161.939 178.797 160.655C176.127 159.371 173.49 158.039 170.881 156.633L157.08 149.199L143.294 141.792C142.145 141.167 140.997 140.529 139.862 139.883C138.727 139.238 137.593 138.578 136.465 137.919C133.645 136.228 130.53 135.086 127.285 134.556C123.534 134.033 119.43 134.665 116.019 138.116C115.227 137.368 114.346 136.719 113.396 136.187C111.465 135.027 109.206 134.535 106.968 134.787C105.306 135.043 103.74 135.732 102.429 136.785C101.389 137.605 100.451 138.547 99.636 139.591C97.0132 142.839 90.5988 151.876 81.4528 165.215C72.3068 178.553 60.4292 196.179 46.8801 216.605Z" fill="#FFC0C0" stroke="black" stroke-width="2.03848" stroke-miterlimit="10" stroke-linecap="round"/>
<path d="M116.019 138.116L108.286 148.961L100.553 159.806" stroke="black" stroke-width="2.03848" stroke-miterlimit="10" stroke-linecap="round"/>
<path d="M118.268 256.586C114.137 263.616 110.003 270.638 105.867 277.65L93.4731 298.789" stroke="black" stroke-width="2.03848" stroke-miterlimit="10" stroke-linecap="round"/>
<path d="M212.204 232.077L198.489 255.927L184.821 279.785C184.283 280.72 184 281.78 184 282.859C184 283.938 184.283 284.999 184.82 285.933C185.357 286.867 186.129 287.643 187.059 288.181C187.989 288.72 189.044 289.002 190.117 289H244.883C245.956 289.002 247.011 288.72 247.941 288.181C248.871 287.643 249.643 286.867 250.18 285.933C250.717 284.999 251 283.938 251 282.859C251 281.78 250.717 280.72 250.179 279.785L236.483 255.927L222.796 232.077C222.26 231.142 221.488 230.365 220.558 229.825C219.629 229.284 218.574 229 217.5 229C216.426 229 215.371 229.284 214.442 229.825C213.512 230.365 212.74 231.142 212.204 232.077V232.077Z" fill="#F7CE21" stroke="black" stroke-width="2.03848" stroke-miterlimit="10" stroke-linecap="round"/>
<path d="M217.509 272C216.843 272.001 216.203 271.726 215.73 271.236C215.496 270.992 215.311 270.701 215.186 270.381C215.061 270.061 214.998 269.719 215 269.373V242.618C214.999 242.274 215.063 241.933 215.188 241.615C215.313 241.296 215.497 241.007 215.73 240.764C215.962 240.521 216.238 240.328 216.542 240.197C216.846 240.066 217.171 239.999 217.5 240C218.162 240.002 218.797 240.279 219.265 240.769C219.734 241.26 219.998 241.924 220 242.618V269.373C219.998 270.066 219.734 270.731 219.265 271.221C218.797 271.712 218.162 271.988 217.5 271.991L217.509 272Z" fill="black"/>
<path d="M220 280.457C220.008 281.266 219.776 282.054 219.343 282.687C218.909 283.319 218.301 283.756 217.622 283.924C216.943 284.092 216.235 283.98 215.619 283.607C215.003 283.235 214.517 282.624 214.243 281.88C213.969 281.136 213.925 280.305 214.118 279.527C214.311 278.749 214.729 278.074 215.301 277.615C215.873 277.157 216.564 276.944 217.255 277.013C217.947 277.082 218.596 277.428 219.093 277.993C219.378 278.312 219.605 278.695 219.76 279.118C219.916 279.541 219.997 279.996 220 280.457V280.457Z" fill="black"/>
<path d="M454.094 154.057H369.375C367.072 154.055 364.864 153.14 363.236 151.512C361.608 149.883 360.692 147.676 360.691 145.373V58.5338C360.692 56.2312 361.608 54.0235 363.236 52.3953C364.864 50.7671 367.072 49.8517 369.375 49.8499H454.094C456.396 49.8517 458.604 50.7671 460.232 52.3953C461.861 54.0235 462.776 56.2312 462.778 58.5338V145.373C462.776 147.676 461.861 149.883 460.232 151.512C458.604 153.14 456.396 154.055 454.094 154.057Z" fill="#D1B7E5" stroke="black" stroke-width="2.03848" stroke-miterlimit="10" stroke-linecap="round"/>
<path d="M442.611 101.94C442.611 109.084 440.134 116.006 435.603 121.528C431.071 127.05 424.765 130.83 417.759 132.224C410.753 133.618 403.48 132.539 397.18 129.172C390.88 125.805 385.943 120.358 383.209 113.758C380.475 107.159 380.114 99.8154 382.187 92.9795C384.261 86.1437 388.64 80.2382 394.58 76.2694C400.519 72.3005 407.651 70.5139 414.76 71.2138C421.869 71.9138 428.515 75.057 433.567 80.108C436.438 82.9719 438.715 86.3749 440.267 90.1216C441.819 93.8683 442.616 97.8847 442.611 101.94Z" fill="#EF3F3F" stroke="black" stroke-width="2.03848" stroke-miterlimit="10" stroke-linecap="round"/>
<path d="M414.412 103.394L418.686 98.7057L422.966 94.0172C423.392 93.5514 423.615 92.9356 423.586 92.3055C423.557 91.6754 423.279 91.0824 422.814 90.6571C422.348 90.2318 421.732 90.009 421.102 90.0377C420.472 90.0664 419.879 90.3442 419.453 90.81L415.376 95.3151L411.3 99.8201L407.223 95.2675L403.146 90.7081C402.937 90.475 402.684 90.2854 402.402 90.1501C402.12 90.0149 401.814 89.9366 401.501 89.9199C401.19 89.8994 400.877 89.9411 400.582 90.0426C400.287 90.1441 400.015 90.3033 399.782 90.511C399.549 90.7198 399.359 90.9725 399.224 91.2547C399.089 91.5369 399.011 91.8429 398.994 92.1554C398.974 92.4674 399.016 92.7803 399.119 93.0756C399.221 93.3708 399.382 93.6425 399.592 93.8745L403.805 98.631L408.024 103.387L403.75 108.076L399.47 112.764C399.046 113.231 398.824 113.847 398.851 114.477C398.872 114.94 399.027 115.387 399.299 115.762C399.571 116.138 399.947 116.426 400.38 116.59C400.826 116.758 401.312 116.789 401.776 116.679C402.24 116.568 402.66 116.322 402.983 115.972L407.093 111.467L411.17 106.962L415.247 111.521L419.324 116.074C419.553 116.329 419.833 116.533 420.147 116.672C420.449 116.804 420.775 116.871 421.105 116.869C421.388 116.87 421.669 116.82 421.934 116.719C422.212 116.62 422.468 116.468 422.688 116.271C422.921 116.063 423.11 115.812 423.246 115.531C423.381 115.25 423.459 114.945 423.476 114.633C423.497 114.322 423.455 114.009 423.354 113.714C423.252 113.419 423.093 113.147 422.885 112.914L418.665 108.157L414.412 103.394Z" fill="#FFF8F8" stroke="black" stroke-width="2.03848" stroke-miterlimit="10" stroke-linecap="round"/>
<path d="M97.4073 85.9515H35.3015C32.4059 85.9425 29.6317 84.7873 27.5854 82.7385C25.5392 80.6897 24.3875 77.914 24.3821 75.0184V12.9263C24.3857 10.0284 25.5389 7.25029 27.5887 5.2018C29.6384 3.15331 32.4172 2.0018 35.3151 2H97.4209C100.316 2.0036 103.092 3.15635 105.138 5.20503C107.184 7.25372 108.334 10.0308 108.334 12.9263V75.032C108.332 77.9299 107.18 80.7087 105.132 82.7585C103.083 84.8082 100.305 85.9614 97.4073 85.965V85.9515Z" fill="#F7CE21" stroke="black" stroke-width="2.03848" stroke-miterlimit="10" stroke-linecap="round"/>
<path d="M58.1258 31.1909C58.1276 31.5847 58.051 31.975 57.9005 32.339C57.75 32.7029 57.5286 33.0333 57.2492 33.3109C56.7577 33.8049 56.1099 34.113 55.4165 34.1826C54.7232 34.2523 54.0271 34.0792 53.4471 33.6929C52.8671 33.3066 52.439 32.7311 52.236 32.0644C52.033 31.3978 52.0676 30.6814 52.3339 30.0374C52.6001 29.3934 53.0816 28.8617 53.6961 28.5331C54.3106 28.2045 55.0201 28.0992 55.7036 28.2353C56.387 28.3715 57.0021 28.7405 57.4438 29.2795C57.8855 29.8185 58.1266 30.494 58.1258 31.1909Z" fill="black"/>
<path d="M58.126 52.3368C58.1233 53.028 57.8812 53.6968 57.4409 54.2295C57.0006 54.7623 56.3894 55.1261 55.7111 55.259C55.0329 55.3919 54.3296 55.2857 53.7208 54.9585C53.112 54.6312 52.6354 54.1032 52.372 53.4642C52.1087 52.8252 52.0749 52.1147 52.2763 51.4536C52.4777 50.7925 52.902 50.2215 53.4769 49.8379C54.0518 49.4544 54.7419 49.2818 55.4297 49.3496C56.1175 49.4175 56.7605 49.7215 57.2495 50.21C57.5291 50.4888 57.7505 50.8204 57.901 51.1855C58.0515 51.5506 58.128 51.9419 58.126 52.3368Z" fill="black"/>
<path d="M80.5901 23.7982C78.3794 25.2731 76.4085 27.079 74.7464 29.1526C71.2636 33.2945 69.3512 38.5309 69.345 43.9424C69.3388 49.354 71.2392 54.5947 74.7125 58.7446C76.3789 60.8495 78.3617 62.6832 80.5901 64.1805" stroke="black" stroke-width="2.03848" stroke-miterlimit="10" stroke-linecap="round"/>
<path d="M281.72 55.5035L261.927 55.9044L242.14 56.3053C242.565 61.6217 243.691 66.8584 245.49 71.8793C249.33 82.7415 256.606 92.0565 266.214 98.4136C268.925 100.205 271.788 101.755 274.769 103.048C276.949 99.246 278.736 95.2321 280.103 91.0682C281.525 86.7292 282.495 82.2547 282.998 77.7162C283.418 73.9489 283.518 70.1528 283.297 66.3686C283.076 62.7092 282.549 59.0747 281.72 55.5035Z" fill="black" stroke="black" stroke-width="2.03848" stroke-miterlimit="10" stroke-linecap="round"/>
<path d="M260.071 93.6704C258.998 92.6919 258.169 91.8561 257.53 91.1698C256.891 90.4836 256.456 89.94 256.171 89.5526C255.947 89.2673 255.743 88.9955 255.566 88.7576C255.39 88.5198 255.24 88.3024 255.118 88.1189C255.267 88.1665 255.43 88.2208 255.614 88.2684C255.797 88.316 255.994 88.3771 256.205 88.4247L256.721 88.5334C257.034 88.5946 257.448 88.6693 257.87 88.7169C260.175 88.9981 262.513 88.7169 264.686 87.8973C266.858 87.0778 268.8 85.7443 270.345 84.0109C271.89 82.2775 272.992 80.1958 273.557 77.9437C274.122 75.6916 274.133 73.3361 273.589 71.0787C273.046 68.8213 271.964 66.7291 270.436 64.9811C268.907 63.233 266.978 61.8811 264.814 61.0409C262.649 60.2007 260.313 59.8972 258.006 60.1564C255.699 60.4155 253.488 61.2297 251.564 62.5292C248.704 64.4558 246.595 67.3089 245.591 70.6084C245.143 69.6095 244.681 68.4884 244.232 67.2109C243.771 65.8621 243.381 64.4899 243.064 63.1C242.771 61.8225 242.561 60.6062 242.384 59.4647C242.207 58.3231 242.139 57.2563 242.092 56.2778L208.314 56.9573L174.543 57.6368C174.244 58.9007 173.986 60.1781 173.755 61.4692C173.524 62.7602 173.341 64.0716 173.191 65.3966C171.336 82.0375 175.794 97.7949 184.505 109.808C193.216 121.822 206.181 130.098 221.333 131.797C231.975 132.962 242.715 130.782 252.06 125.559C261.529 120.249 269.365 112.45 274.721 103.007C272.863 102.197 271.048 101.29 269.285 100.289C267.702 99.3849 266.357 98.5152 265.249 97.7541C264.631 97.3261 263.856 96.7689 262.973 96.0894C262.089 95.4099 261.111 94.6081 260.071 93.6704Z" fill="#FFC0C0" stroke="black" stroke-width="2.03848" stroke-miterlimit="10" stroke-linecap="round"/>
<path d="M247.874 90.0011C247.678 91.7732 246.872 93.422 245.596 94.6668C244.319 95.9115 242.65 96.675 240.874 96.8271C239.097 96.9793 237.323 96.5108 235.854 95.5013C234.384 94.4919 233.31 93.004 232.814 91.2913C232.319 89.5786 232.433 87.7471 233.136 86.1088C233.84 84.4706 235.09 83.1271 236.673 82.3073C238.256 81.4874 240.075 81.242 241.819 81.6129C243.563 81.9837 245.124 82.9478 246.237 84.341C246.869 85.1301 247.339 86.0364 247.62 87.0077C247.901 87.979 247.988 88.9963 247.874 90.0011Z" fill="#EF3F3F" stroke="black" stroke-width="2.03848" stroke-miterlimit="10" stroke-linecap="round"/>
<path d="M202.858 109.985C202.661 111.757 201.856 113.406 200.579 114.651C199.302 115.895 197.634 116.659 195.857 116.811C194.081 116.963 192.307 116.495 190.837 115.485C189.367 114.476 188.293 112.988 187.798 111.275C187.302 109.563 187.416 107.731 188.12 106.093C188.823 104.455 190.073 103.111 191.656 102.291C193.24 101.471 195.058 101.226 196.802 101.597C198.546 101.968 200.108 102.932 201.22 104.325C201.852 105.114 202.322 106.021 202.603 106.992C202.884 107.963 202.97 108.98 202.858 109.985Z" fill="#EF3F3F" stroke="black" stroke-width="2.03848" stroke-miterlimit="10" stroke-linecap="round"/>
<path d="M194.405 89.8791C194.33 90.5934 194.01 91.2596 193.499 91.7644C192.989 92.2692 192.319 92.5813 191.603 92.6476C190.888 92.7139 190.172 92.5303 189.577 92.128C188.982 91.7258 188.545 91.1297 188.34 90.4414C188.136 89.7531 188.176 89.015 188.454 88.3529C188.732 87.6908 189.231 87.1455 189.866 86.81C190.501 86.4745 191.233 86.3695 191.936 86.5128C192.64 86.6561 193.272 87.0389 193.726 87.596C193.985 87.9123 194.178 88.2772 194.295 88.6692C194.412 89.0612 194.449 89.4725 194.405 89.8791Z" fill="black"/>
<path d="M225.512 80.4748C225.412 81.2876 224.996 82.0283 224.354 82.5369C223.712 83.0454 222.895 83.281 222.081 83.1927C221.468 83.1249 220.889 82.8764 220.417 82.4787C219.945 82.081 219.603 81.5521 219.432 80.9592C219.262 80.3663 219.271 79.7361 219.46 79.1486C219.648 78.5612 220.007 78.0431 220.491 77.66C220.974 77.2769 221.561 77.0463 222.176 76.9973C222.791 76.9483 223.407 77.0832 223.945 77.3848C224.483 77.6865 224.919 78.1413 225.198 78.6914C225.478 79.2416 225.587 79.8623 225.512 80.4748Z" fill="black"/>
<path d="M190.376 72.0423C192.969 70.603 195.665 69.3562 198.441 68.3119C207.034 65.046 216.253 63.7661 225.41 64.5679" stroke="black" stroke-width="2.03848" stroke-miterlimit="10" stroke-linecap="round"/>
<path d="M198.965 69.0999L202.444 83.3964L205.923 97.6997L207.9 97.0474L209.877 96.4019" stroke="black" stroke-width="2.03848" stroke-miterlimit="10" stroke-linecap="round"/>
<path d="M234.855 11.3158C220.905 9.75296 207.539 14.0338 196.803 22.378C185.574 31.2538 177.731 43.7143 174.584 57.6776L228.148 56.5905L281.713 55.5033C279.144 44.1283 273.33 33.7428 264.977 25.6055C256.792 17.6431 246.199 12.6178 234.855 11.3158Z" fill="#F9851C" stroke="black" stroke-width="2.03848" stroke-miterlimit="10" stroke-linecap="round"/>
<path d="M254.438 78.6673L259.331 75.4465L264.223 72.2257" stroke="black" stroke-width="2.03848" stroke-miterlimit="10" stroke-linecap="round"/>
<path d="M194.935 57.2633C195.34 62.9543 194.026 68.6356 191.164 73.5712C188.454 78.2831 184.275 81.9776 179.266 84.0897C177.388 84.8656 175.417 85.391 173.402 85.6526C166.966 86.4756 160.462 84.7625 155.266 80.8757C152.621 78.8889 150.453 76.3376 148.917 73.4074C147.382 70.4771 146.52 67.2415 146.392 63.936C146.312 61.9062 146.53 59.8756 147.038 57.9088C148.191 53.6179 150.51 49.7302 153.737 46.6768C157.013 43.6055 161.171 41.5806 165.785 41.7097C168.549 41.8188 171.24 42.6278 173.606 44.0608C175.167 44.9865 176.603 46.1077 177.88 47.3971C177.468 48.3755 177.062 49.4084 176.664 50.4956C176.276 51.5828 175.896 52.7311 175.542 53.927C175.352 54.6065 175.182 55.218 175.019 55.8432C174.856 56.4683 174.707 57.0798 174.571 57.6846L184.763 57.4808L194.935 57.2633Z" fill="black" stroke="black" stroke-width="2.03848" stroke-miterlimit="10" stroke-linecap="round"/>
<path d="M181.732 39.6509L228.76 39.7324L275.788 39.814" stroke="black" stroke-width="2.03848" stroke-miterlimit="10" stroke-linecap="round"/>
<path d="M195.954 39.678L194.976 48.4774L193.99 57.2837" stroke="black" stroke-width="2.03848" stroke-miterlimit="10" stroke-linecap="round"/>
<path d="M214.525 39.8409L213.594 48.158L212.663 56.475" stroke="black" stroke-width="2.03848" stroke-miterlimit="10" stroke-linecap="round"/>
<path d="M237.193 40.0994L236.276 48.2669L235.365 56.4412" stroke="black" stroke-width="2.03848" stroke-miterlimit="10" stroke-linecap="round"/>
<path d="M260.309 40.1061L259.446 47.8387L258.583 55.5781" stroke="black" stroke-width="2.03848" stroke-miterlimit="10" stroke-linecap="round"/>
<path d="M213.594 113.043C213.885 111.974 214.3 110.944 214.831 109.972C215.614 108.531 216.674 107.258 217.95 106.228C219.915 104.675 222.291 103.73 224.785 103.51C227.425 103.268 230.083 103.691 232.518 104.739" stroke="black" stroke-width="2.03848" stroke-miterlimit="10" stroke-linecap="round"/>
<path d="M344.641 241.97C343.111 241.796 341.592 241.526 340.096 241.161C338.6 240.797 337.131 240.329 335.699 239.761C334.878 239.439 334.077 239.067 333.301 238.647C332.518 238.216 331.77 237.723 331.065 237.173C327.158 234.142 324.073 230.33 321.185 226.348C318.297 222.366 315.579 218.194 312.427 214.498C311.636 213.565 310.594 212.878 309.424 212.52C308.255 212.161 307.007 212.145 305.829 212.474C304.651 212.803 303.592 213.463 302.778 214.376C301.964 215.289 301.428 216.416 301.235 217.624C301.177 218.001 301.158 218.384 301.181 218.765C301.198 219.144 301.246 219.522 301.324 219.893C302.302 224.704 303.41 229.841 304.551 235.059C305.693 240.278 306.861 245.592 307.949 250.742C308.612 253.838 308.085 257.069 306.473 259.794C304.862 262.518 302.283 264.536 299.251 265.446C289.548 268.348 278.567 271.304 267.315 274.035C256.063 276.767 244.538 279.288 233.768 281.258C232.521 281.467 231.299 281.811 230.126 282.284C228.542 282.912 227.158 283.96 226.124 285.315C225.091 286.779 224.484 288.5 224.371 290.289C224.272 291.723 224.359 293.164 224.629 294.576C222.997 294.698 221.424 295.234 220.056 296.132C218.779 296.967 217.784 298.167 217.202 299.577C216.957 300.174 216.791 300.8 216.706 301.439C216.56 302.487 216.679 303.555 217.053 304.544C217.652 306.015 218.732 307.239 220.117 308.017C221.663 308.895 223.416 309.34 225.193 309.308C224.189 310.114 223.419 311.174 222.964 312.379C222.515 313.569 222.398 314.858 222.625 316.109C222.625 316.198 222.659 316.286 222.679 316.374L222.74 316.626C223.108 317.998 223.941 319.199 225.098 320.023C226.257 320.852 227.648 321.292 229.073 321.28H233.041L237.01 321.246C236.597 322.213 236.313 323.229 236.167 324.27C235.958 325.58 236.165 326.923 236.758 328.109C237.583 329.497 238.889 330.534 240.427 331.024C241.752 331.472 243.118 331.788 244.504 331.969C250.436 332.859 256.414 333.413 262.409 333.627C268.117 333.871 273.111 333.878 275.999 333.865L312.814 333.769L349.629 333.674L363.844 333.307L378.059 332.934L373.982 288.93L369.905 244.926L357.273 243.472L344.641 241.97Z" fill="#FFC0C0" stroke="black" stroke-width="2.03848" stroke-miterlimit="10" stroke-linecap="round"/>
<path d="M224.629 294.576L254.473 289.894L284.309 285.213" stroke="black" stroke-width="2.03848" stroke-miterlimit="10" stroke-linecap="round"/>
<path d="M225.193 309.308L256.103 305.503L287.02 301.704" stroke="black" stroke-width="2.03848" stroke-miterlimit="10" stroke-linecap="round"/>
<path d="M237.009 321.199L262.015 319.1L287.02 316.993" stroke="black" stroke-width="2.03848" stroke-miterlimit="10" stroke-linecap="round"/>
<path d="M124.675 246.672L109.122 272.663L93.5683 298.653C93.562 298.661 93.5588 298.67 93.5594 298.68C93.56 298.689 93.5645 298.698 93.5717 298.704C93.5789 298.711 93.5883 298.714 93.5978 298.713C93.6074 298.713 93.6163 298.708 93.6226 298.701L109.441 286.552L125.267 274.395L124.968 260.534L124.675 246.672Z" fill="black" stroke="black" stroke-width="2.03848" stroke-miterlimit="10" stroke-linecap="round"/>
</svg>
