<svg width="4345" height="4287" viewBox="0 0 4345 4287" fill="none" xmlns="http://www.w3.org/2000/svg">
<path d="M3220.16 4193.41C3173.37 4252.78 3101.94 4287.5 3026.48 4286.99L1313.06 4284.48C1238.11 4284.48 1166.67 4249.76 1119.89 4190.39L53.9067 2837.47C7.12222 2778.1 -10.4848 2700.12 6.11611 2626.16L390.453 941.674C407.054 867.713 456.354 805.325 524.267 772.622L2069.66 24.4651C2137.07 -8.23841 2216.05 -8.23842 2283.97 24.9683L3826.85 777.15C3894.26 810.357 3943.56 872.745 3960.16 946.705L4338.96 2632.7C4355.56 2706.66 4337.45 2784.14 4290.67 2843.51L3220.16 4193.41Z" fill="url(#paint0_linear_0_3)"/>
<path d="M2434.62 2628.13C2476.88 2628.63 2521.15 2630.64 2533.22 2632.65C2545.3 2634.67 2573.98 2640.7 2596.11 2646.73C2618.75 2652.77 2651.45 2663.83 2669.56 2670.87C2687.17 2677.91 2712.33 2689.48 2725.41 2696.52C2738.49 2703.56 2758.61 2715.13 2769.68 2721.66C2781.25 2728.2 2801.88 2742.28 2815.97 2752.84C2830.05 2763.4 2857.73 2788.04 2878.35 2808.16C2898.48 2827.77 2923.13 2854.93 2933.19 2868C2942.75 2881.08 2958.85 2903.71 2968.41 2917.79C2977.46 2931.87 2991.55 2955.5 2999.1 2970.59C3007.15 2985.68 3019.22 3013.33 3026.77 3032.44C3033.81 3051.05 3042.87 3077.2 3046.89 3090.78C3050.41 3103.85 3053.94 3118.44 3054.94 3122.96C3055.95 3127.99 3058.97 3143.08 3061.98 3157.16C3065 3171.24 3068.02 3198.39 3069.53 3217.5C3070.54 3236.11 3073.56 3253.71 3075.57 3255.72C3078.08 3258.74 3088.65 3260.25 3107.77 3260.25C3123.36 3260.25 3142.98 3261.25 3152.04 3263.26C3160.59 3264.77 3178.7 3268.29 3191.78 3270.3C3204.87 3272.82 3225.49 3277.85 3238.07 3281.37C3250.14 3284.89 3268.26 3291.43 3278.82 3294.95C3288.88 3298.47 3309.51 3307.52 3324.6 3315.06C3339.7 3322.1 3366.36 3337.69 3384.47 3349.26C3405.6 3363.34 3430.26 3383.96 3455.91 3410.61C3478.05 3432.73 3502.7 3461.4 3512.26 3475.98C3521.32 3490.06 3533.89 3511.69 3539.93 3523.76C3545.97 3535.82 3551 3548.9 3551 3552.92C3551 3556.44 3543.45 3569.01 3534.4 3580.08C3525.34 3591.64 3497.17 3627.85 3471.01 3660.54C3444.85 3693.73 3419.69 3725.91 3414.16 3732.45C3408.62 3739.49 3389 3764.63 3369.88 3789.28C3350.77 3813.92 3334.16 3834.53 3333.16 3835.54C3332.15 3836.55 3323.09 3848.11 3312.53 3861.19C3301.96 3874.26 3285.36 3895.89 3275.3 3908.96C3265.24 3922.04 3256.18 3933.6 3255.18 3934.61C3254.17 3935.61 3244.11 3948.19 3233.04 3962.27C3221.47 3976.35 3210.4 3990.43 3207.38 3993.44C3204.36 3996.96 3196.82 4006.52 3190.28 4015.57C3183.74 4024.12 3161.6 4052.28 3141.47 4077.93C3120.85 4103.58 3099.72 4129.72 3093.68 4135.76C3087.64 4142.3 3075.57 4149.34 3067.02 4152.35C3052.93 4156.38 3019.22 4157.38 2838.61 4156.88C2722.39 4156.38 2319.91 4155.37 1944.59 4154.87C1569.28 4154.37 1256.85 4152.86 1250.31 4151.85C1243.77 4150.34 1232.2 4145.82 1224.66 4141.79C1217.11 4137.27 1207.05 4129.22 1202.02 4124.19C1196.98 4118.66 1185.92 4106.09 1177.87 4095.53C1169.82 4084.97 1153.21 4063.35 1141.14 4047.25C1129.07 4031.66 1118.5 4018.09 1117.49 4017.08C1115.99 4016.07 1102.9 3998.98 1087.31 3979.36C1072.22 3959.25 1050.58 3931.59 1039.51 3917.51C1027.94 3903.43 1009.33 3879.79 997.756 3864.71C985.682 3849.62 973.608 3834.53 971.092 3831.52C968.073 3828.5 961.03 3818.95 954.993 3810.9C948.955 3802.85 931.85 3780.73 917.26 3761.62C902.67 3743.01 868.962 3700.27 842.298 3666.57C815.633 3633.38 794 3604.22 794 3602.71C794 3600.7 798.528 3592.65 804.062 3584.6C809.596 3576.56 824.186 3559.96 837.267 3547.39C849.844 3535.32 866.447 3520.74 873.993 3514.7C881.54 3509.17 897.639 3498.11 909.714 3490.57C921.788 3483.02 938.893 3473.47 946.943 3469.95C955.496 3465.92 968.577 3460.39 976.123 3457.38C983.67 3453.86 1000.77 3448.32 1014.36 3444.8C1027.94 3441.28 1042.53 3438.27 1046.56 3438.27C1051.09 3438.27 1056.12 3436.25 1058.13 3434.24C1060.64 3431.23 1062.66 3409.1 1063.66 3378.42C1065.17 3346.24 1068.19 3312.55 1073.22 3289.41C1077.25 3268.29 1085.3 3237.62 1090.83 3220.52C1096.36 3203.92 1106.43 3178.28 1112.97 3164.2C1119.51 3150.12 1131.58 3126.98 1140.13 3112.9C1149.19 3098.82 1164.28 3076.19 1173.84 3063.12C1183.4 3050.04 1207.55 3023.89 1226.67 3004.78C1246.29 2985.68 1274.97 2961.03 1291.06 2949.97C1306.66 2938.91 1336.85 2921.31 1357.47 2910.24C1378.1 2899.68 1403.76 2888.12 1415.33 2884.09C1426.4 2880.07 1446.52 2874.04 1459.6 2870.52C1472.68 2866.49 1493.31 2861.46 1505.39 2858.95C1520.48 2855.93 1552.68 2854.42 1606.01 2854.42C1657.83 2854.42 1690.53 2855.93 1702.6 2858.45C1713.17 2860.96 1727.76 2864.98 1735.3 2867C1742.85 2869.01 1763.48 2875.54 1781.09 2881.08C1798.7 2887.11 1827.88 2899.18 1845.99 2908.23C1863.6 2917.28 1879.69 2924.83 1881.71 2924.83C1883.22 2924.83 1890.76 2915.77 1898.31 2904.71C1905.35 2894.15 1920.45 2874.04 1931.01 2860.96C1941.58 2847.89 1964.22 2823.75 1980.82 2808.16C1997.42 2792.07 2024.08 2768.93 2039.68 2756.36C2055.78 2744.29 2078.42 2727.7 2091 2720.66C2103.07 2713.11 2129.23 2699.03 2148.85 2688.98C2168.48 2679.42 2200.67 2666.35 2220.29 2659.81C2239.92 2653.27 2269.6 2644.72 2286.7 2640.7C2303.31 2637.18 2326.45 2632.15 2337.52 2630.64C2348.59 2628.63 2392.36 2627.63 2434.62 2628.13Z" fill="white"/>
<path d="M1488.39 1370.07H1650.43L1432.03 1092.84L1642.88 826.187H1486.88L1305.73 1064.67V826.187H1173.38V1370.07H1305.73V1130.07L1488.39 1370.07ZM2140.06 937.378H2007.71V1172.34C2007.71 1231.2 1975 1263.91 1923.67 1263.91C1874.36 1263.91 1841.15 1231.2 1841.15 1172.34V937.378H1709.3V1189.95C1709.3 1305.67 1776.73 1374.59 1876.87 1374.59C1934.74 1374.59 1981.04 1347.93 2007.71 1311.2V1370.07H2140.06V937.378ZM2368.01 998.256V796H2235.67V1369.56H2368.01V1309.19C2392.17 1346.92 2437.96 1375.6 2501.36 1375.6C2607.54 1375.6 2692.08 1289.06 2692.08 1152.72C2692.08 1016.37 2608.05 930.838 2501.36 930.838C2439.47 930.838 2392.17 959.516 2368.01 998.256ZM2557.22 1152.72C2557.22 1221.64 2511.93 1260.38 2461.61 1260.38C2412.29 1260.38 2367.01 1222.15 2367.01 1153.22C2367.01 1084.29 2412.29 1046.56 2461.61 1046.56C2511.93 1046.56 2557.22 1083.79 2557.22 1152.72ZM2952.24 1037C2996.53 1037 3033.76 1064.17 3033.76 1111.46H2867.7C2875.76 1063.66 2908.97 1037 2952.24 1037ZM3159.07 1226.17H3018.17C3007.09 1249.32 2986.46 1267.93 2949.22 1267.93C2906.45 1267.93 2871.73 1241.77 2867.2 1184.92H3167.12C3168.63 1171.83 3169.13 1158.75 3169.13 1146.17C3169.13 1014.86 3080.06 930.838 2953.75 930.838C2825.43 930.838 2735.36 1016.37 2735.36 1153.22C2735.36 1290.57 2826.94 1375.6 2953.75 1375.6C3061.44 1375.6 3138.43 1310.7 3159.07 1226.17ZM939.888 2073.94C937.876 1912.94 703.881 1961.74 703.881 1892.81C703.881 1872.18 720.99 1859.61 751.686 1859.61C788.924 1859.61 811.569 1878.72 815.595 1908.41H937.876C929.321 1822.88 867.426 1760.99 755.712 1760.99C642.489 1760.99 579.587 1821.37 579.587 1895.33C579.587 2053.81 815.595 2003.5 815.595 2073.43C815.595 2092.55 797.479 2108.15 763.26 2108.15C727.029 2108.15 699.855 2088.02 696.836 2057.84H566C572.039 2141.36 649.534 2205.76 764.77 2205.76C873.464 2205.76 939.888 2149.41 939.888 2073.94ZM1021.41 2199.72H1153.75V1767.53H1021.41V2199.72ZM1088.34 1722.25C1134.63 1722.25 1166.34 1690.56 1166.34 1650.81C1166.34 1610.56 1134.63 1578.86 1088.34 1578.86C1041.03 1578.86 1009.33 1610.56 1009.33 1650.81C1009.33 1690.56 1041.03 1722.25 1088.34 1722.25ZM1846.18 2199.72H1978.02V1947.15C1978.02 1830.93 1908.58 1762.5 1801.9 1762.5C1738.99 1762.5 1684.65 1797.22 1655.96 1843C1626.78 1791.18 1573.94 1762.5 1509.02 1762.5C1452.16 1762.5 1408.38 1786.65 1382.72 1821.37V1767.03H1249.87V2199.72H1382.72V1964.76C1382.72 1908.41 1414.92 1877.22 1465.75 1877.22C1516.07 1877.22 1548.27 1908.41 1548.27 1964.76V2199.72H1680.12V1964.76C1680.12 1908.41 1712.83 1877.22 1763.15 1877.22C1813.47 1877.22 1846.18 1908.41 1846.18 1964.76V2199.72ZM2203.46 1828.41V1767.53H2070.61V2406H2203.46V2139.34C2227.11 2175.57 2272.9 2205.76 2336.81 2205.76C2442.99 2205.76 2527.03 2119.22 2527.03 1982.87C2527.03 1846.52 2442.99 1760.99 2336.81 1760.99C2272.9 1760.99 2227.11 1790.68 2203.46 1828.41ZM2392.17 1982.87C2392.17 2051.8 2347.38 2090.54 2297.06 2090.54C2247.24 2090.54 2202.45 2052.3 2202.45 1983.37C2202.45 1914.45 2247.24 1876.71 2297.06 1876.71C2347.38 1876.71 2392.17 1913.94 2392.17 1982.87ZM2596.97 2199.72H2729.32V1626.16H2596.97V2199.72ZM2825.43 2199.72H2958.28V1767.53H2825.43V2199.72ZM2892.36 1722.25C2938.66 1722.25 2970.36 1690.56 2970.36 1651.31C2970.36 1611.06 2938.66 1579.37 2892.36 1579.37C2845.06 1579.37 2813.36 1611.06 2813.36 1651.31C2813.36 1690.56 2845.06 1722.25 2892.36 1722.25ZM3067.48 2199.72H3199.83V1877.22H3271.28V1767.53H3199.83V1763.51C3199.83 1717.73 3217.94 1702.13 3268.77 1705.65V1592.95C3136.92 1585.91 3067.48 1641.75 3067.48 1754.96V1767.53H3019.17V1877.22H3067.48V2199.72ZM3532.45 2038.22L3432.31 1767.53H3284.37L3460.49 2185.13L3360.85 2405.5H3503.77L3775 1767.53H3631.58L3532.45 2038.22Z" fill="white"/>
<path fill-rule="evenodd" clip-rule="evenodd" d="M2167.64 3001.84C2135.08 3011.61 2116.96 3088.47 2132.57 3150.56C2135.25 3161.2 2135.61 3164.37 2135.61 3177.08V3191.52L2131.85 3193.09C2129.79 3193.96 2124.16 3195.26 2119.35 3195.98C2114.54 3196.7 2109.7 3197.77 2108.6 3198.36C2107.5 3198.95 2103.31 3199.95 2099.28 3200.57C2072.31 3204.76 2033.27 3221.73 1995.75 3245.59C1973.18 3259.94 1962.13 3256.93 1950.56 3233.29C1928.75 3188.76 1861.14 3138.54 1830.48 3144.11C1777.97 3153.64 1818.47 3240.79 1897.01 3287.28C1919.08 3300.34 1923.16 3309.67 1913.5 3324.96C1911.15 3328.67 1907.07 3335.1 1904.44 3339.24C1901.81 3343.39 1899.65 3347.13 1899.65 3347.56C1899.65 3347.99 1898.21 3350.58 1896.46 3353.33C1880.79 3377.8 1862.96 3427.79 1858.39 3460.11C1856.39 3474.2 1844.46 3477.99 1822.51 3471.5C1747.27 3449.26 1645.55 3481.06 1668.22 3519.74C1673.99 3529.59 1689.98 3542.63 1697.85 3543.91C1699.86 3544.24 1705.36 3545.85 1710.08 3547.49C1732.94 3555.44 1790.24 3555.82 1817.49 3548.2C1823.64 3546.49 1828.91 3545.87 1839.85 3545.61C1856.91 3545.21 1856.36 3544.82 1858.71 3559C1866.18 3604.25 1882.29 3645.2 1908.68 3686.05C1911.91 3691.04 1916.22 3697.97 1918.26 3701.46L1921.96 3707.78L1918.84 3711.73C1913.74 3718.17 1905.97 3724.61 1895.7 3730.93C1856.49 3755.02 1820.48 3795.64 1810.76 3826.73C1784.66 3910.18 1896.03 3878.06 1949.73 3786.64C1963.49 3763.22 1973.08 3758.52 1987.54 3768.11C2027.11 3794.36 2061.98 3810.07 2097.56 3817.68C2102.98 3818.84 2108.88 3820.39 2110.67 3821.14C2112.46 3821.88 2116.65 3822.81 2119.98 3823.19C2135.33 3824.94 2135.61 3825.27 2135.61 3841.66C2135.61 3852.22 2135.23 3854.93 2132.55 3863.66C2120.92 3901.43 2125.46 3955.81 2143.19 3991.1C2180.94 4066.23 2235.06 3970.61 2212.54 3868.57C2204.82 3833.58 2207.2 3826.62 2228.38 3822.25C2278.46 3811.93 2304.97 3801.14 2350.06 3772.75C2373.43 3758.03 2378.64 3759.73 2395.05 3787.46C2436.17 3856.95 2517.62 3898.42 2537.27 3859.87C2545.82 3843.09 2536.02 3817.56 2506.4 3779.49C2497.5 3768.05 2470.65 3744.32 2457.28 3736.08C2441.89 3726.6 2427.69 3715.26 2425.08 3710.37C2423.26 3706.98 2424.12 3705.08 2435.31 3687.69C2461.05 3647.69 2471.08 3624.86 2480.97 3583.7C2483.04 3575.1 2485.93 3563.07 2487.4 3556.97L2490.07 3545.88L2503.68 3545.91C2514.8 3545.94 2518.58 3546.35 2524.39 3548.17C2594.98 3570.19 2697.92 3537.65 2678.38 3499.49C2663.5 3470.44 2581.08 3453.86 2529.07 3469.45C2518.4 3472.65 2509.93 3473.59 2498.63 3472.84L2490.05 3472.27L2487.9 3463.69C2486.71 3458.98 2483.82 3446.95 2481.47 3436.97C2471.62 3395.13 2460.08 3368.92 2433.95 3329.09C2420.82 3309.07 2423.54 3301.45 2448.71 3287.62C2527.73 3244.18 2568.32 3143.35 2506.69 3143.56C2489.32 3143.62 2484.17 3145.93 2452.74 3167.75C2432.14 3182.06 2406.82 3210.72 2393.52 3234.78C2380.08 3259.12 2372.76 3260.46 2345.89 3243.46C2311.86 3221.94 2281.38 3208.44 2252.37 3202.06C2248.33 3201.17 2243.2 3199.99 2240.99 3199.45C2238.77 3198.9 2232.49 3197.57 2227.04 3196.48C2206.28 3192.35 2202.83 3184.85 2210.08 3159.66C2230.4 3089.12 2203.99 2990.92 2167.64 3001.84ZM2134.17 3289.99C2135.52 3293 2135.97 3383.98 2134.66 3388.85C2133.11 3394.62 2130.96 3396.32 2121.84 3399.01L2114.04 3401.3L2078.44 3365.66C2057.74 3344.94 2042.84 3329.25 2042.84 3328.19C2042.84 3324.06 2069.09 3308.9 2090.76 3300.52C2118.6 3289.73 2132.54 3286.36 2134.17 3289.99ZM2227.93 3291.69C2254.12 3298.71 2301.99 3322.11 2301.99 3327.89C2301.99 3328.55 2285.73 3345.34 2265.85 3365.22L2229.71 3401.35L2221.73 3398.59C2206.78 3393.42 2206.94 3394.09 2207.39 3336.94C2207.8 3284.14 2206.93 3286.06 2227.93 3291.69ZM1997.46 3385.77C1999.96 3387.74 2015.75 3403.25 2032.56 3420.22C2067.51 3455.53 2065.1 3451.35 2059.01 3465.98L2055.76 3473.78L2018.29 3473.77C1970.34 3473.77 1952.11 3473 1951.32 3470.94C1949.06 3465.05 1961.31 3429.99 1975.38 3402.09C1987.26 3378.53 1987.8 3378.13 1997.46 3385.77ZM2359.32 3384.99C2371.96 3402.44 2390.7 3448.99 2393.13 3468.99L2393.72 3473.78H2341.82H2289.93L2287.26 3468.51C2285.79 3465.61 2283.73 3460.77 2282.69 3457.74L2280.81 3452.25L2288.56 3444.11C2338 3392.16 2354.51 3378.36 2359.32 3384.99ZM2056.58 3549.04C2058.09 3551.61 2060.39 3556.65 2061.69 3560.24L2064.06 3566.78L2040.09 3591.12C2026.9 3604.51 2010.28 3621.13 2003.16 3628.05L1990.21 3640.64L1987.82 3637.87C1973.13 3620.79 1946.72 3553.34 1952.47 3547.58C1954.69 3545.36 1966.9 3544.78 2016.33 3544.55L2053.85 3544.37L2056.58 3549.04ZM2364.9 3545.04C2395.44 3545.82 2393.73 3545.04 2391.74 3557.34C2389.65 3570.33 2378.13 3600.68 2369.04 3617.18C2353.89 3644.65 2360.07 3646.33 2316.8 3603.04L2280.69 3566.92L2283.32 3559.94C2284.77 3556.1 2287.08 3551.03 2288.47 3548.66L2290.99 3544.37H2314.98C2328.18 3544.37 2350.64 3544.67 2364.9 3545.04ZM2260.21 3648.49C2307.9 3695.36 2306.51 3692.39 2285.86 3703.38C2262.35 3715.89 2229.68 3728.21 2214 3730.47L2209.2 3731.16L2209.47 3678.41L2209.73 3625.66L2217.79 3622.37C2229.81 3617.48 2226.73 3615.58 2260.21 3648.49ZM2129.81 3623.48L2135.61 3626.2V3678.7V3731.21L2130.78 3730.63C2124.09 3729.84 2102.09 3723.29 2094.77 3719.91C2091.44 3718.37 2086.45 3716.3 2083.68 3715.3C2070.79 3710.66 2042.84 3694.93 2042.84 3692.32C2042.84 3689.33 2105.53 3625.65 2112.82 3621.24C2115.89 3619.38 2123.09 3620.33 2129.81 3623.48Z" fill="url(#paint1_linear_0_3)"/>
<defs>
<linearGradient id="paint0_linear_0_3" x1="29.2569" y1="0.314777" x2="4316.44" y2="4286.37" gradientUnits="userSpaceOnUse">
<stop stop-color="#5CFF68"/>
<stop offset="1" stop-color="#05CAFF"/>
</linearGradient>
<linearGradient id="paint1_linear_0_3" x1="1671.84" y1="3001.07" x2="2688.77" y2="4002.99" gradientUnits="userSpaceOnUse">
<stop stop-color="#5CFF68"/>
<stop offset="1" stop-color="#05CAFF"/>
</linearGradient>
</defs>
</svg>