<svg width="642" height="449" viewBox="0 0 642 449" fill="none" xmlns="http://www.w3.org/2000/svg">
<path d="M612.674 331.468C615.268 329.278 617.72 326.924 620.013 324.421C621.819 322.445 623.515 320.372 625.096 318.211C647.077 288.17 643.068 246.293 630.396 208.031C617.723 169.769 596.421 135.121 583.721 119.54C580.634 115.739 577.3 112.146 573.739 108.784C570.879 106.066 568.657 104.259 567.624 103.348C560.008 96.827 551.458 91.4836 542.259 87.4955C533.057 83.5151 523.269 81.0573 513.278 80.2181C497.154 78.8591 480.262 79.9938 463.471 82.2566C446.681 84.5193 429.993 87.9643 414.249 91.2667C404.444 93.3051 394.673 95.6494 385.031 98.3878C375.363 101.1 365.838 104.297 356.492 107.969C348.392 111.176 339.545 114.458 331.255 118.616C322.966 122.775 315.24 127.796 309.376 134.503C303.07 141.705 298.422 150.036 294.427 158.74C290.431 167.445 287.17 176.53 283.609 185.241C279.872 194.373 276.726 203.635 273.587 212.903C270.447 222.171 267.295 231.439 263.564 240.572L247.752 215.132L231.947 189.698L189.024 219.453L146.1 249.215L171.194 301.475L196.335 353.721C199.597 362.219 203.985 370.241 209.381 377.571C217.053 387.886 228.346 398.425 244.144 402.787C248.059 403.865 252.077 404.527 256.131 404.765C258.905 404.92 261.686 404.92 264.461 404.765C279.634 404.085 292.558 398.867 302.717 392.785C310.658 387.977 317.95 382.17 324.413 375.506V447.233L371.237 442.844L418.054 438.454L463.872 434.153L509.684 429.858L606.206 419.15L639.46 415.467C638.233 411.616 637.005 407.766 635.777 403.915C634.55 400.065 633.324 396.214 632.101 392.364C628.862 382.212 625.623 372.061 622.384 361.909C619.146 351.757 615.909 341.61 612.674 331.468Z" fill="#104FC1" stroke="black" stroke-width="2.03848" stroke-miterlimit="10" stroke-linecap="round"/>
<path d="M353.461 109.178L357.375 144.009L361.276 178.833L382.68 159.005L404.084 139.178L389.753 120.233L375.416 101.289C373.078 101.935 370.659 102.648 368.179 103.484C365.699 104.32 363.158 105.21 360.555 106.202C359.319 106.655 358.111 107.142 356.934 107.663C355.751 108.172 354.596 108.675 353.461 109.178Z" fill="#104FC1" stroke="black" stroke-width="2.03848" stroke-miterlimit="10" stroke-linecap="round"/>
<path d="M404.07 139.178C405.769 131.196 407.463 123.214 409.152 115.232C410.842 107.251 412.536 99.2688 414.235 91.287L426.466 88.8136L438.697 86.3471L452.66 121.681L466.617 157.014L435.361 148.079L404.07 139.178Z" fill="#104FC1" stroke="black" stroke-width="2.03848" stroke-miterlimit="10" stroke-linecap="round"/>
<path d="M418.747 438.386L463.77 434.159L508.8 429.94C508.903 429.93 509.003 429.897 509.091 429.843C509.18 429.788 509.254 429.715 509.31 429.627C509.364 429.54 509.398 429.441 509.409 429.339C509.419 429.236 509.406 429.133 509.371 429.036L457.213 284.304L405.048 139.572C404.99 139.423 404.881 139.3 404.741 139.224C404.601 139.148 404.438 139.123 404.282 139.155C404.125 139.187 403.985 139.272 403.885 139.397C403.786 139.522 403.733 139.677 403.737 139.837L410.872 288.761L418.006 437.693C418.011 437.784 418.035 437.873 418.075 437.955C418.116 438.037 418.172 438.11 418.241 438.17C418.31 438.229 418.391 438.274 418.478 438.302C418.564 438.33 418.656 438.34 418.747 438.332V438.386Z" fill="#FFF8F8" stroke="black" stroke-width="2.03848" stroke-miterlimit="10" stroke-linecap="round"/>
<path d="M375.416 101.289L389.74 120.233L404.07 139.178C405.769 131.196 407.463 123.214 409.153 115.232C410.842 107.251 412.537 99.2688 414.235 91.287C414.235 91.287 405.402 93.2779 396.086 95.5271C386.77 97.7762 377.081 100.27 375.416 101.289Z" fill="#FFF8F8" stroke="black" stroke-width="2.03848" stroke-miterlimit="10" stroke-linecap="round"/>
<path d="M139.346 202.717H9.9569C8.90931 202.715 7.8725 202.506 6.90568 202.102C5.93886 201.699 5.06095 201.109 4.32209 200.366C3.58322 199.624 2.99787 198.743 2.59945 197.774C2.20103 196.805 1.99735 195.767 2.00003 194.72V113.914C2.00003 111.799 2.84049 109.77 4.33651 108.273C5.83254 106.777 7.86158 105.937 9.97728 105.937H139.346C141.462 105.937 143.491 106.777 144.987 108.273C146.483 109.77 147.323 111.799 147.323 113.914V194.72C147.323 196.835 146.483 198.864 144.987 200.36C143.491 201.856 141.462 202.697 139.346 202.697V202.717Z" fill="#D1B7E5" stroke="black" stroke-width="2.03848" stroke-miterlimit="10" stroke-linecap="round"/>
<path d="M324.155 419.075L324.277 433.154L324.399 447.233L347.346 445.161L370.292 443.088L347.223 431.081L324.155 419.075Z" fill="black" stroke="black" stroke-width="2.03848" stroke-miterlimit="10" stroke-linecap="round"/>
<path d="M612.675 331.468L584.054 351.553L555.427 371.646L597.44 393.553L639.46 415.467L626.067 373.467L612.675 331.468Z" fill="black" stroke="black" stroke-width="2.03848" stroke-miterlimit="10" stroke-linecap="round"/>
<path d="M3.69214 108.981L35.4177 135.936L67.1365 162.892C69.488 164.889 72.4804 165.972 75.5654 165.942C78.6504 165.912 81.6212 164.771 83.9336 162.729L114.572 135.604L145.217 108.499" stroke="black" stroke-width="2.03848" stroke-miterlimit="10" stroke-linecap="round"/>
<path d="M328.837 243.419C328.121 272.293 327.405 301.16 326.689 330.02C325.974 358.881 325.258 387.746 324.542 416.615" stroke="black" stroke-width="2.03848" stroke-miterlimit="10" stroke-linecap="round"/>
<path d="M447.137 393.417L426.854 411.22L406.578 429.023L357.702 399.505L308.826 370.029C306.624 368.7 304.753 366.889 303.354 364.732C301.954 362.576 301.062 360.129 300.746 357.578C300.429 355.026 300.696 352.436 301.526 350.002C302.356 347.569 303.727 345.355 305.537 343.529L329.272 320.154L353 296.78C354.367 295.389 355.942 294.22 357.668 293.314C359.33 292.441 361.111 291.816 362.954 291.459C366.565 290.761 370.302 291.161 373.683 292.607C377.082 294.072 380 296.465 382.102 299.511L414.609 346.464L447.137 393.417Z" fill="#14AF6C" stroke="black" stroke-width="2.03848" stroke-miterlimit="10" stroke-linecap="round"/>
<path d="M444.133 396.054L421.248 416.506L398.335 436.959L349.459 407.442L300.583 377.931C298.382 376.603 296.511 374.792 295.111 372.635C293.712 370.478 292.82 368.032 292.503 365.48C292.186 362.928 292.453 360.338 293.283 357.905C294.113 355.471 295.485 353.258 297.294 351.431L321.077 329.008L344.893 306.585C346.678 304.782 348.803 303.353 351.146 302.38C353.488 301.407 356.001 300.91 358.537 300.917C361.074 300.925 363.583 301.437 365.92 302.424C368.257 303.411 370.373 304.853 372.147 306.666L408.161 351.39L444.133 396.054Z" fill="#D1B7E5" stroke="black" stroke-width="2.03848" stroke-miterlimit="10" stroke-linecap="round"/>
<path d="M439.553 399.152L413.094 423.179L386.641 447.206L337.765 417.689L288.889 388.178C286.688 386.85 284.817 385.039 283.417 382.882C282.017 380.725 281.126 378.278 280.809 375.727C280.492 373.175 280.759 370.585 281.589 368.151C282.419 365.718 283.79 363.504 285.6 361.678L309.709 339.255L333.817 316.831C335.602 315.029 337.728 313.599 340.071 312.626C342.415 311.653 344.928 311.156 347.465 311.164C350.002 311.171 352.512 311.683 354.849 312.67C357.186 313.657 359.304 315.1 361.078 316.913L400.319 358.002L439.553 399.152Z" fill="#FFF8F8" stroke="black" stroke-width="2.03848" stroke-miterlimit="10" stroke-linecap="round"/>
<path d="M231.975 189.719C230.249 186.681 228.319 183.508 226.145 180.253C223.97 176.998 221.565 173.655 218.888 170.258C213.47 163.424 207.473 157.069 200.963 151.266C195.676 146.55 190.073 142.2 184.193 138.247C177.887 134.421 171.826 130.596 165.758 126.77C159.69 122.945 153.629 119.112 147.323 115.287C147.486 120.723 147.405 126.193 147.323 131.649C147.242 137.105 147.16 142.555 147.323 148.011C142.744 148.942 138.164 149.853 133.591 150.804C129.018 151.755 124.452 152.747 119.906 153.841C117.99 154.294 116.076 154.779 114.164 155.295C112.252 155.812 110.35 156.34 108.456 156.879C106.662 157.395 104.685 157.843 102.776 158.435C100.891 158.957 99.0982 159.768 97.4621 160.84C96.1598 161.792 95.2683 163.203 94.9683 164.788C94.7999 165.575 94.7969 166.389 94.9595 167.177C95.1221 167.965 95.4467 168.711 95.9128 169.368V169.402C98.359 172.67 102.511 173.234 107.974 173.567C113.437 173.9 120.205 174.009 127.924 176.366C129.783 176.944 131.609 177.625 133.394 178.405C134.95 179.084 136.234 179.723 137.199 180.233L142.961 183.379L146.046 185.084C146.11 185.115 146.171 185.152 146.229 185.193C146.324 185.26 146.415 185.333 146.501 185.411C146.861 185.783 147.098 186.258 147.181 186.77C147.253 187.196 147.283 187.628 147.269 188.061C147.269 189.114 147.269 190.167 147.269 191.22C147.269 192.273 147.269 193.327 147.269 194.38C147.273 194.761 147.257 195.142 147.221 195.521C147.181 195.981 147.1 196.436 146.977 196.88C146.856 197.311 146.701 197.731 146.515 198.137C146.358 198.464 146.223 198.708 146.141 198.817C145.641 199.585 145.027 200.273 144.32 200.855C143.304 201.614 142.128 202.129 140.882 202.364C140.134 202.52 139.375 202.611 138.612 202.636C136.696 202.676 128.529 202.717 115.89 202.731C103.251 202.744 86.1553 202.731 66.3752 202.649C76.6535 203.753 86.7553 206.127 96.4496 209.716C110.365 214.783 122.999 222.841 133.462 233.322C135.959 235.852 138.314 238.52 140.515 241.312C142.621 243.983 144.49 246.64 146.148 249.235L189.071 219.474L231.975 189.719Z" fill="#FFC0C0" stroke="black" stroke-width="2.03848" stroke-miterlimit="10" stroke-linecap="round"/>
<path d="M137.219 180.253C138.069 180.674 139.163 181.238 140.454 181.925C141.745 182.611 143.219 183.433 144.83 184.371C151.4 188.215 157.617 192.633 163.407 197.573C168.007 201.372 171.833 204.559 177.323 207.148C180.297 208.552 183.417 209.625 186.625 210.348C191.168 211.345 195.819 211.762 200.467 211.591" stroke="black" stroke-width="2.03848" stroke-miterlimit="10" stroke-linecap="round"/>
<path d="M142.764 148.969C144.558 148.562 146.406 148.168 148.309 147.801C150.211 147.434 152.168 147.074 154.173 146.747C156.592 146.353 158.929 146.014 161.24 145.728C163.55 145.443 165.758 145.198 167.919 145.008" stroke="black" stroke-width="2.03848" stroke-miterlimit="10" stroke-linecap="round"/>
<path d="M476.171 301.217L505.641 344.208L535.111 387.2C523.62 394.776 512.735 401.326 502.739 406.966C492.744 412.606 483.619 417.315 475.655 421.236C451.193 433.215 433.023 439.799 418.917 443.353C404.811 446.907 394.782 447.43 386.655 447.226C384.46 447.172 382.456 447.077 380.696 446.954C378.936 446.832 377.414 446.703 376.191 446.581C373.234 446.426 370.331 445.735 367.622 444.542C365.86 443.762 364.197 442.774 362.669 441.6C361.575 440.764 360.557 439.834 359.625 438.821C355.811 439.107 351.976 438.783 348.263 437.863C345.996 437.288 343.874 436.247 342.032 434.805C341.468 434.35 339.946 433.045 338.567 431.863L335.944 429.6L334.952 429.315L333.96 429.036C331.965 428.441 330.007 427.729 328.096 426.903C326.18 426.098 324.41 424.982 322.857 423.6C321.979 422.776 321.249 421.809 320.696 420.74C320.152 419.684 319.833 418.527 319.759 417.342C319.652 416.351 319.794 415.349 320.171 414.426C320.549 413.503 321.149 412.689 321.919 412.056C323.541 410.894 325.523 410.345 327.512 410.506C333.515 410.815 339.533 410.69 345.518 410.133C351.512 409.553 357.409 408.22 363.07 406.164L363.919 405.845L364.775 405.512C373.872 401.851 382.639 397.42 390.983 392.269C403.039 384.834 414.478 376.442 425.189 367.175L409.431 341.551L393.674 315.934C393.674 315.934 399.3 314.684 408.1 313.312C419.189 311.553 430.368 310.418 441.585 309.914C447.562 309.669 453.499 308.808 459.299 307.346C465.108 305.886 470.752 303.837 476.144 301.23L476.171 301.217Z" fill="#FFC0C0" stroke="black" stroke-width="2.03848" stroke-miterlimit="10" stroke-linecap="round"/>
<path d="M335.944 429.587C347.419 428.406 358.797 426.419 369.993 423.641C389.08 418.959 412.305 410.86 428.844 397.141" stroke="black" stroke-width="2.03848" stroke-miterlimit="10" stroke-linecap="round"/>
<path d="M359.625 438.807C369.648 438.995 379.667 438.262 389.556 436.619C406.544 433.847 427.703 427.786 444.133 414.543" stroke="black" stroke-width="2.03848" stroke-miterlimit="10" stroke-linecap="round"/>
<path d="M263.592 240.585L270.407 252.884L277.229 265.176" stroke="black" stroke-width="2.03848" stroke-miterlimit="10" stroke-linecap="round"/>
<path d="M476.171 301.217L506.443 281.015L536.707 260.807L523.063 233.546L509.412 206.285" stroke="black" stroke-width="2.03848" stroke-miterlimit="10" stroke-linecap="round"/>
<path d="M535.11 387.2C537.113 385.619 539.128 384.033 541.158 382.443C543.187 380.853 545.226 379.279 547.273 377.721C558.245 369.318 569.189 361.263 580.106 353.558C591.024 345.853 601.875 338.485 612.661 331.454" stroke="black" stroke-width="2.03848" stroke-miterlimit="10" stroke-linecap="round"/>
<path d="M346.768 311.11L353.441 352.07L360.093 393.023C360.438 395.136 361.477 397.074 363.046 398.531C364.615 399.987 366.624 400.88 368.757 401.068L371.305 401.292L373.853 401.517" stroke="black" stroke-width="2.03848" stroke-miterlimit="10" stroke-linecap="round"/>
<path d="M384.236 230.509C384.237 231.43 383.918 232.323 383.335 233.036C382.751 233.749 381.939 234.237 381.035 234.418C380.132 234.599 379.194 234.461 378.381 234.027C377.568 233.594 376.93 232.892 376.577 232.041C376.223 231.19 376.176 230.243 376.442 229.362C376.709 228.48 377.273 227.717 378.038 227.205C378.804 226.692 379.724 226.461 380.64 226.55C381.557 226.64 382.415 227.045 383.067 227.695C383.437 228.064 383.731 228.503 383.931 228.986C384.132 229.468 384.235 229.986 384.236 230.509V230.509Z" fill="black" stroke="black" stroke-width="2.03848" stroke-miterlimit="10" stroke-linecap="round"/>
<path d="M384.236 287.09C384.237 288.011 383.918 288.904 383.335 289.617C382.751 290.33 381.939 290.819 381.035 290.999C380.132 291.18 379.194 291.042 378.381 290.609C377.568 290.175 376.93 289.473 376.577 288.623C376.223 287.772 376.176 286.825 376.442 285.943C376.709 285.061 377.273 284.299 378.038 283.786C378.804 283.274 379.724 283.042 380.64 283.132C381.557 283.221 382.415 283.626 383.067 284.277C383.437 284.646 383.731 285.084 383.931 285.567C384.132 286.05 384.235 286.567 384.236 287.09Z" fill="black" stroke="black" stroke-width="2.03848" stroke-miterlimit="10" stroke-linecap="round"/>
<path d="M444.534 48.6283L424.414 48.506L404.294 48.3769C404.585 53.7895 405.588 59.1402 407.277 64.2906C409.614 71.4567 413.416 78.0585 418.441 83.6766C421.181 86.7371 424.264 89.473 427.628 91.8305C430.329 93.7293 433.194 95.3825 436.19 96.7704C438.511 92.9668 440.436 88.9343 441.931 84.7366C444.789 76.7174 446.117 68.2332 445.845 59.7244C445.719 55.9956 445.28 52.2839 444.534 48.6283V48.6283Z" fill="black" stroke="black" stroke-width="2.03848" stroke-miterlimit="10" stroke-linecap="round"/>
<path d="M421.513 86.8567C420.439 85.8375 419.624 84.9609 418.992 84.2475C418.36 83.534 417.938 82.97 417.633 82.5623C417.408 82.2701 417.211 81.9915 417.041 81.7401C416.872 81.4887 416.715 81.2645 416.6 81.0606L417.096 81.2305L417.694 81.4004L418.217 81.5295C418.53 81.5974 418.951 81.6858 419.379 81.7401C421.714 82.0914 424.099 81.8718 426.331 81.1001C428.562 80.3284 430.573 79.0275 432.192 77.3089C433.811 75.5902 434.99 73.5049 435.627 71.2313C436.264 68.9578 436.341 66.5637 435.851 64.2539C435.361 61.9441 434.319 59.7875 432.814 57.9684C431.308 56.1494 429.385 54.7221 427.207 53.8087C425.03 52.8954 422.664 52.5232 420.311 52.7239C417.958 52.9246 415.69 53.6923 413.698 54.9613C410.739 56.8433 408.517 59.6865 407.406 63.0133C406.978 61.9872 406.543 60.8321 406.142 59.5478C405.708 58.1659 405.348 56.7619 405.062 55.3418C404.804 54.0372 404.62 52.7937 404.498 51.6317C404.376 50.4698 404.308 49.3826 404.287 48.3838L369.946 48.1731L335.631 47.9489C335.296 49.2263 334.997 50.5196 334.734 51.8288C334.463 53.1334 334.238 54.4584 334.055 55.8038C331.717 72.6621 335.828 88.7865 344.356 101.228C352.884 113.67 365.814 122.462 381.157 124.596C391.938 126.067 402.909 124.141 412.543 119.085C422.316 113.948 430.496 106.233 436.196 96.7773C434.317 95.8975 432.487 94.9177 430.713 93.8419C429.13 92.8838 427.784 91.9665 426.677 91.1239C426.065 90.6755 425.318 90.0911 424.414 89.3708C423.51 88.6506 422.545 87.8352 421.513 86.8567Z" fill="#FFC0C0" stroke="black" stroke-width="2.03848" stroke-miterlimit="10" stroke-linecap="round"/>
<path d="M404.043 84.2203C403.794 86.016 402.93 87.67 401.599 88.9002C400.267 90.1305 398.55 90.8608 396.74 90.9668C394.931 91.0729 393.14 90.5479 391.674 89.4816C390.208 88.4152 389.157 86.8734 388.7 85.1189C388.244 83.3645 388.41 81.506 389.17 79.8602C389.93 78.2144 391.238 76.8832 392.87 76.0935C394.501 75.3038 396.357 75.1044 398.119 75.5294C399.881 75.9545 401.442 76.9775 402.534 78.4242C403.156 79.2431 403.609 80.1768 403.868 81.1716C404.126 82.1663 404.186 83.2024 404.043 84.2203V84.2203Z" fill="#EF3F3F" stroke="black" stroke-width="2.03848" stroke-miterlimit="10" stroke-linecap="round"/>
<path d="M364.415 99.0807C364.164 100.872 363.3 102.521 361.97 103.747C360.64 104.973 358.926 105.7 357.12 105.805C355.314 105.909 353.528 105.384 352.065 104.319C350.603 103.254 349.555 101.715 349.1 99.9644C348.645 98.2136 348.811 96.3592 349.569 94.7169C350.328 93.0747 351.632 91.7462 353.26 90.9578C354.888 90.1693 356.74 89.9695 358.498 90.3926C360.257 90.8156 361.815 91.8352 362.906 93.2778C363.528 94.098 363.981 95.0328 364.24 96.0287C364.499 97.0246 364.558 98.0618 364.415 99.0807V99.0807Z" fill="#EF3F3F" stroke="black" stroke-width="2.03848" stroke-miterlimit="10" stroke-linecap="round"/>
<path d="M368.118 101.214C370.118 102.069 372.301 102.404 374.465 102.186C377.978 101.792 382.163 99.6584 384.888 92.6732" stroke="black" stroke-width="2.03848" stroke-miterlimit="10" stroke-linecap="round"/>
<path d="M354.006 79.1117L354.006 79.1127C354.231 79.4067 354.394 79.7423 354.488 80.1C354.582 80.4578 354.603 80.8305 354.552 81.1967L354.888 81.2441L354.552 81.1979C354.463 81.8443 354.153 82.4399 353.674 82.8833C353.195 83.3266 352.577 83.5902 351.926 83.6292C351.275 83.6681 350.63 83.48 350.102 83.0969C349.574 82.7137 349.195 82.1593 349.03 81.5281C348.865 80.8968 348.923 80.2278 349.196 79.6351C349.469 79.0424 349.939 78.5627 350.526 78.2777C351.113 77.9927 351.781 77.92 352.415 78.0721C353.05 78.2242 353.612 78.5916 354.006 79.1117Z" fill="black" stroke="black" stroke-width="0.679494"/>
<path d="M385.861 70.387L385.861 70.388C386.086 70.6819 386.249 71.0175 386.343 71.3752C386.437 71.733 386.458 72.1057 386.407 72.4719L386.743 72.5193L386.406 72.4731C386.318 73.1195 386.008 73.7152 385.529 74.1585C385.05 74.6019 384.432 74.8655 383.781 74.9044C383.13 74.9434 382.485 74.7552 381.957 74.3721C381.429 73.989 381.05 73.4345 380.885 72.8033C380.72 72.1721 380.778 71.5031 381.051 70.9104C381.324 70.3177 381.794 69.8379 382.381 69.5529C382.968 69.2679 383.636 69.1952 384.27 69.3473C384.905 69.4994 385.467 69.8668 385.861 70.387Z" fill="black" stroke="black" stroke-width="0.679494"/>
<path d="M351.525 63.1628L368.804 58.7189L386.084 54.275" stroke="black" stroke-width="2.03848" stroke-miterlimit="10" stroke-linecap="round"/>
<path d="M360.358 60.8933L363.504 75.516L366.657 90.1455L368.682 89.534L370.707 88.9292" stroke="black" stroke-width="2.03848" stroke-miterlimit="10" stroke-linecap="round"/>
<path d="M398.104 2.49075C383.977 0.53381 370.245 4.52923 359.149 12.6832C347.506 21.4015 339.205 33.8492 335.631 47.9489L390.093 48.2886L444.547 48.6284C442.242 37.0056 436.618 26.2999 428.355 17.8065C420.244 9.4949 409.604 4.10842 398.104 2.49075V2.49075Z" fill="#F9851C" stroke="black" stroke-width="2.03848" stroke-miterlimit="10" stroke-linecap="round"/>
<path d="M416.192 71.4594L421.248 68.3202L426.31 65.1741" stroke="black" stroke-width="2.03848" stroke-miterlimit="10" stroke-linecap="round"/>
<path d="M356.295 48.1051C356.558 53.9067 355.069 59.6533 352.021 64.5964C349.14 69.3136 344.794 72.9578 339.647 74.9723C337.719 75.7104 335.701 76.1902 333.647 76.3992C327.087 77.0505 320.531 75.1337 315.355 71.0516C312.721 68.9622 310.587 66.3117 309.107 63.2931C307.627 60.2745 306.839 56.9638 306.8 53.6022C306.769 51.5347 307.044 49.4739 307.616 47.4868C308.902 43.1561 311.362 39.266 314.723 36.2479C318.121 33.2174 322.422 31.274 327.103 31.5323C329.909 31.7147 332.621 32.608 334.986 34.1279C336.545 35.1128 337.975 36.2909 339.239 37.6341C338.786 38.6126 338.347 39.6499 337.921 40.7462C337.493 41.847 337.078 42.9953 336.691 44.2048C336.48 44.8843 336.283 45.5026 336.1 46.1346C335.917 46.7665 335.753 47.3916 335.597 47.9964L345.946 48.0643L356.295 48.1051Z" fill="black" stroke="black" stroke-width="2.03848" stroke-miterlimit="10" stroke-linecap="round"/>
<path d="M343.357 29.854L391.146 31.2062L438.928 32.5516" stroke="black" stroke-width="2.03848" stroke-miterlimit="10" stroke-linecap="round"/>
<path d="M357.817 30.2616L356.58 39.1834L355.337 48.0983" stroke="black" stroke-width="2.03848" stroke-miterlimit="10" stroke-linecap="round"/>
<path d="M376.68 30.9275L375.511 39.3532L374.342 47.779" stroke="black" stroke-width="2.03848" stroke-miterlimit="10" stroke-linecap="round"/>
<path d="M399.701 31.7973L398.559 40.0803L397.404 48.3634" stroke="black" stroke-width="2.03848" stroke-miterlimit="10" stroke-linecap="round"/>
<path d="M423.198 32.436L422.11 40.2705L421.023 48.1051" stroke="black" stroke-width="2.03848" stroke-miterlimit="10" stroke-linecap="round"/>
<path d="M509.582 206.624L523.172 233.716L536.762 260.807L522.057 270.626L507.353 280.438C507.697 268.143 508.048 255.847 508.406 243.548C508.764 231.249 509.115 218.955 509.459 206.665C509.459 206.654 509.46 206.643 509.463 206.633C509.466 206.623 509.472 206.613 509.478 206.605C509.485 206.597 509.494 206.59 509.503 206.585C509.513 206.58 509.523 206.578 509.534 206.577C509.545 206.581 509.555 206.587 509.563 206.595C509.571 206.604 509.578 206.613 509.582 206.624V206.624Z" fill="black" stroke="black" stroke-width="2.03848" stroke-miterlimit="10" stroke-linecap="round"/>
</svg>
